<svg width="22" height="12" viewBox="0 0 22 12" fill="none" xmlns="http://www.w3.org/2000/svg">
<path d="M12.6977 0.697499C12.9442 0.462805 13.2722 0.333056 13.6126 0.335631C13.9529 0.338207 14.279 0.472905 14.5219 0.711303C14.7649 0.9497 14.9057 1.27315 14.9147 1.6134C14.9237 1.95366 14.8002 2.2841 14.5702 2.535L7.58765 11.2675C7.46759 11.3968 7.32268 11.5006 7.16158 11.5726C7.00049 11.6447 6.82653 11.6835 6.65009 11.6868C6.47366 11.69 6.29838 11.6577 6.13473 11.5917C5.97108 11.5256 5.82242 11.4273 5.69765 11.3025L1.06715 6.672C0.938201 6.55184 0.834773 6.40694 0.763037 6.24594C0.691301 6.08494 0.652728 5.91114 0.649618 5.73491C0.646509 5.55868 0.678927 5.38363 0.744939 5.2202C0.810951 5.05677 0.909204 4.90832 1.03384 4.78368C1.15847 4.65905 1.30693 4.5608 1.47036 4.49478C1.63379 4.42877 1.80884 4.39635 1.98507 4.39946C2.1613 4.40257 2.3351 4.44115 2.4961 4.51288C2.65709 4.58462 2.802 4.68805 2.92215 4.817L6.58665 8.47975L12.6627 0.735999C12.6736 0.722488 12.6852 0.709632 12.6977 0.697499ZM11.0877 9.6925L12.6977 11.3025C12.8224 11.427 12.9709 11.5251 13.1344 11.591C13.2979 11.6569 13.473 11.6891 13.6492 11.6859C13.8254 11.6826 13.9992 11.6439 14.1601 11.572C14.3211 11.5001 14.4659 11.3966 14.5859 11.2675L21.5719 2.535C21.6974 2.4111 21.7966 2.26318 21.8637 2.10008C21.9308 1.93698 21.9643 1.76203 21.9622 1.5857C21.9601 1.40936 21.9226 1.23524 21.8517 1.07375C21.7809 0.91225 21.6782 0.766688 21.5499 0.64575C21.4215 0.524813 21.2701 0.43098 21.1047 0.369857C20.9393 0.308734 20.7632 0.281573 20.5871 0.289996C20.4109 0.29842 20.2383 0.342256 20.0795 0.418885C19.9206 0.495514 19.7789 0.603366 19.6627 0.735999L13.5849 8.47975L12.7362 7.62925L11.0859 9.6925H11.0877Z" fill="#28A0A4"/>
</svg>
