<svg width="21" height="21" viewBox="0 0 21 21" fill="none" xmlns="http://www.w3.org/2000/svg">
<path d="M10.1915 0.0947743C10.2865 0.0325464 10.3924 0 10.5 0C10.6076 0 10.7135 0.0325464 10.8085 0.0947743L20.653 6.55664C20.7578 6.62558 20.8455 6.72827 20.9066 6.85375C20.9677 6.97922 21 7.12277 21 7.26906C21 7.41536 20.9677 7.5589 20.9066 7.68438C20.8455 7.80985 20.7578 7.91254 20.653 7.98148L10.8085 14.4433C10.7135 14.5056 10.6076 14.5381 10.5 14.5381C10.3924 14.5381 10.2865 14.5056 10.1915 14.4433L0.34702 7.98148C0.242179 7.91254 0.15452 7.80985 0.0934011 7.68438C0.0322826 7.5589 0 7.41536 0 7.26906C0 7.12277 0.0322826 6.97922 0.0934011 6.85375C0.15452 6.72827 0.242179 6.62558 0.34702 6.55664L10.1915 0.0947743Z" fill="#229B9F"/>
<path d="M2.78846 11.416L0.34702 13.0185C0.242179 13.0875 0.15452 13.1902 0.0934011 13.3156C0.0322826 13.4411 0 13.5847 0 13.7309C0 13.8772 0.0322826 14.0208 0.0934011 14.1463C0.15452 14.2717 0.242179 14.3744 0.34702 14.4434L10.1915 20.9052C10.2865 20.9675 10.3924 21 10.5 21C10.6076 21 10.7135 20.9675 10.8085 20.9052L20.653 14.4434C20.7578 14.3744 20.8455 14.2717 20.9066 14.1463C20.9677 14.0208 21 13.8772 21 13.7309C21 13.5847 20.9677 13.4411 20.9066 13.3156C20.8455 13.1902 20.7578 13.0875 20.653 13.0185L18.2115 11.416L11.4254 15.8682C11.1405 16.0549 10.8227 16.1525 10.5 16.1525C10.1773 16.1525 9.85948 16.0549 9.57462 15.8682L2.78846 11.416Z" fill="#229B9F"/>
</svg>
