<svg width="59" height="58" viewBox="0 0 59 58" fill="none" xmlns="http://www.w3.org/2000/svg">
<rect width="59" height="58" rx="10" fill="#18969A"/>
<g clip-path="url(#clip0)">
<path d="M32.4244 14H22.5C21.5054 14 20.5516 14.3951 19.8483 15.0983C19.1451 15.8016 18.75 16.7554 18.75 17.75V40.25C18.75 41.2446 19.1451 42.1984 19.8483 42.9016C20.5516 43.6049 21.5054 44 22.5 44H37.5C38.4946 44 39.4484 43.6049 40.1516 42.9016C40.8549 42.1984 41.25 41.2446 41.25 40.25V22.8256C41.2499 22.3284 41.0523 21.8515 40.7006 21.5L33.75 14.5494C33.3985 14.1977 32.9216 14.0001 32.4244 14V14ZM32.8125 20.5625V16.8125L38.4375 22.4375H34.6875C34.1902 22.4375 33.7133 22.24 33.3617 21.8883C33.01 21.5367 32.8125 21.0598 32.8125 20.5625ZM23.4375 30.875C23.1889 30.875 22.9504 30.7762 22.7746 30.6004C22.5988 30.4246 22.5 30.1861 22.5 29.9375C22.5 29.6889 22.5988 29.4504 22.7746 29.2746C22.9504 29.0988 23.1889 29 23.4375 29H36.5625C36.8111 29 37.0496 29.0988 37.2254 29.2746C37.4012 29.4504 37.5 29.6889 37.5 29.9375C37.5 30.1861 37.4012 30.4246 37.2254 30.6004C37.0496 30.7762 36.8111 30.875 36.5625 30.875H23.4375ZM22.5 33.6875C22.5 33.4389 22.5988 33.2004 22.7746 33.0246C22.9504 32.8488 23.1889 32.75 23.4375 32.75H36.5625C36.8111 32.75 37.0496 32.8488 37.2254 33.0246C37.4012 33.2004 37.5 33.4389 37.5 33.6875C37.5 33.9361 37.4012 34.1746 37.2254 34.3504C37.0496 34.5262 36.8111 34.625 36.5625 34.625H23.4375C23.1889 34.625 22.9504 34.5262 22.7746 34.3504C22.5988 34.1746 22.5 33.9361 22.5 33.6875ZM23.4375 38.375C23.1889 38.375 22.9504 38.2762 22.7746 38.1004C22.5988 37.9246 22.5 37.6861 22.5 37.4375C22.5 37.1889 22.5988 36.9504 22.7746 36.7746C22.9504 36.5988 23.1889 36.5 23.4375 36.5H30.9375C31.1861 36.5 31.4246 36.5988 31.6004 36.7746C31.7762 36.9504 31.875 37.1889 31.875 37.4375C31.875 37.6861 31.7762 37.9246 31.6004 38.1004C31.4246 38.2762 31.1861 38.375 30.9375 38.375H23.4375Z" fill="white"/>
</g>
<defs>
<clipPath id="clip0">
<rect width="30" height="30" fill="white" transform="translate(15 14)"/>
</clipPath>
</defs>
</svg>
