<svg width="207" height="38" viewBox="0 0 207 38" fill="none" xmlns="http://www.w3.org/2000/svg">
<path d="M0.1875 4.10084C0.470113 3.54085 0.915442 3.33803 1.52777 3.36448C2.47838 3.40417 3.43755 3.37771 4.48236 3.37771C4.48236 3.03378 4.47807 2.72072 4.48236 2.40325C4.49948 1.60516 4.73499 1.31855 5.48435 1.12454C8.73867 0.27354 12.0401 0.0354353 15.3672 0.454322C19.1996 0.934939 22.6595 2.31947 25.4385 5.20317C25.4599 5.22522 25.4942 5.24286 25.5584 5.28695C25.6569 5.20317 25.7725 5.1194 25.8753 5.01798C28.3588 2.57521 31.3563 1.22596 34.7048 0.635104C38.3916 -0.0174768 42.0399 0.211809 45.6624 1.13336C46.3904 1.31855 46.6216 1.60075 46.6345 2.37679C46.6387 2.69426 46.6345 3.01614 46.6345 3.38653C47.6621 3.38653 48.6342 3.38653 49.6019 3.38653C50.6553 3.38653 50.9721 3.70841 50.9721 4.77547C50.9721 15.327 50.9721 25.8829 50.9721 36.4345C50.9721 37.6647 50.3084 38.0571 49.2251 37.5059C46.8871 36.3198 44.4078 35.5614 41.8515 35.0632C36.6445 34.0534 31.4633 34.2386 26.3206 35.5173C25.5156 35.7158 24.7791 35.4997 24.0297 35.3321C17.8722 33.9476 11.7618 34.1284 5.72414 36.0068C4.41813 36.4124 3.15921 36.9856 1.89602 37.5324C1.03106 37.9072 0.641393 37.8278 0.1875 36.9989C0.1875 26.0329 0.1875 15.0669 0.1875 4.10084ZM6.46921 2.9941C6.46921 11.901 6.46921 20.7637 6.46921 29.6617C12.7552 29.0092 18.9042 29.0929 24.5693 32.4969C24.5821 32.4088 24.5907 32.3735 24.5907 32.3382C24.5821 24.1016 24.5778 15.8605 24.5607 7.61949C24.5607 7.42989 24.4494 7.19619 24.3166 7.05068C22.8565 5.41482 21.088 4.24194 19.0669 3.50117C14.9347 1.98436 10.7341 2.099 6.46921 2.9941ZM44.669 3.02496C44.5748 2.99851 44.4977 2.97205 44.4207 2.95441C41.2862 2.27979 38.1347 2.099 34.9703 2.69867C31.8572 3.28952 29.0825 4.57264 26.8773 6.98013C26.706 7.16533 26.5775 7.47398 26.5775 7.72531C26.5647 15.8341 26.5647 23.934 26.569 32.0384C26.569 32.1795 26.5861 32.3206 26.5947 32.4088C27.7251 31.884 28.8085 31.2932 29.9518 30.8699C34.1524 29.3002 38.5029 29.1018 42.9048 29.503C43.4872 29.5559 44.0695 29.6044 44.6733 29.6617C44.669 20.7328 44.669 11.8877 44.669 3.02496ZM2.17435 35.1514C7.87371 32.7968 13.7187 31.9502 19.7691 32.5719C19.6407 32.4969 19.5079 32.444 19.3752 32.4043C16.8231 31.6195 14.2068 31.2579 11.5477 31.3682C9.62077 31.4475 7.69386 31.6548 5.77124 31.8223C5.01332 31.8885 4.56371 31.5401 4.51661 30.7641C4.50377 30.5789 4.51233 30.3893 4.51233 30.2041C4.51233 22.1703 4.51233 14.1321 4.51233 6.09827C4.51233 5.88221 4.51233 5.66615 4.51233 5.4545C3.69018 5.4545 2.94083 5.4545 2.17435 5.4545C2.17435 15.3446 2.17435 25.1995 2.17435 35.1514ZM46.6901 5.44128C46.6901 5.70584 46.6901 5.90867 46.6901 6.1159C46.6901 14.1806 46.6901 22.2497 46.6901 30.3143C46.6901 30.4995 46.703 30.6891 46.6816 30.8743C46.6131 31.474 46.232 31.8179 45.6496 31.8223C45.4526 31.8223 45.2514 31.8047 45.0587 31.7738C41.8557 31.3152 38.6399 31.1565 35.4284 31.6019C34.0582 31.7915 32.7051 32.1574 31.3477 32.4396C31.3562 32.4925 31.3648 32.5499 31.3734 32.6028C37.4324 31.937 43.2902 32.8012 48.9938 35.1514C48.9938 25.1995 48.9938 15.327 48.9938 5.43687C48.2188 5.44128 47.4823 5.44128 46.6901 5.44128Z" fill="#53B3B6"/>
<path d="M74.5884 21.531H64.0161V27.3072H75.6803L75.1022 31.3329H59.3701V8.59399H75.038V12.6197H64.0161V17.47H74.5884V21.531Z" fill="#53B3B6"/>
<path d="M79.0756 8.59399H87.8537C94.2639 8.59399 98.4902 12.9504 98.4902 19.6791C98.4902 26.3107 94.388 31.3241 87.6267 31.3241H79.0713V8.59399H79.0756ZM83.85 27.3689H87.4383C91.669 27.3689 93.5573 24.1016 93.5573 19.6791C93.5573 15.9488 91.7931 12.5536 87.4683 12.5536H83.8457V27.3689H83.85Z" fill="#53B3B6"/>
<path d="M107.145 8.59399V22.1218C107.145 26.5091 109.324 27.7966 111.726 27.7966C114.45 27.7966 116.15 26.2798 116.15 22.1218V8.59399H120.954V21.8925C120.954 29.6794 116.531 31.6592 111.662 31.6592C106.665 31.6592 102.37 29.5824 102.37 21.994V8.59399H107.145Z" fill="#53B3B6"/>
<path d="M130.824 12.6197H124.097V8.59399H142.295V12.6197H135.598V31.3285H130.824V12.6197Z" fill="#53B3B6"/>
<path d="M160.459 21.531H149.887V27.3072H161.551L160.973 31.3329H145.241V8.59399H160.909V12.6197H149.887V17.47H160.459V21.531Z" fill="#53B3B6"/>
<path d="M184.045 24.3C183.18 28.555 180.071 31.6592 174.53 31.6592C167.512 31.6592 164.215 26.5444 164.215 20.0803C164.215 13.8455 167.645 8.2677 174.757 8.2677C180.653 8.2677 183.505 11.7996 184.049 15.6269H179.275C178.795 13.8455 177.609 12.095 174.599 12.095C170.659 12.095 169.152 15.7592 169.152 19.9127C169.152 23.74 170.467 27.7966 174.727 27.7966C177.866 27.7966 178.829 25.6537 179.245 24.3H184.045Z" fill="#53B3B6"/>
<path d="M187.728 8.59399H192.502V17.4347H201.409V8.59399H206.183V31.3285H201.409V21.4957H192.502V31.3285H187.728V8.59399Z" fill="#53B3B6"/>
</svg>
