<svg width="206" height="38" viewBox="0 0 206 38" fill="none" xmlns="http://www.w3.org/2000/svg">
<path d="M0 3.84828C0.282613 3.28829 0.727942 3.08546 1.34027 3.11192C2.29088 3.1516 3.25005 3.12515 4.29486 3.12515C4.29486 2.78122 4.29057 2.46816 4.29486 2.15068C4.31198 1.35259 4.54749 1.06599 5.29685 0.871977C8.55117 0.020976 11.8526 -0.217128 15.1797 0.201758C19.0121 0.682376 22.472 2.06691 25.251 4.95061C25.2724 4.97266 25.3067 4.99029 25.3709 5.03439C25.4694 4.95061 25.585 4.86683 25.6878 4.76542C28.1713 2.32265 31.1688 0.973392 34.5173 0.382541C38.2041 -0.27004 41.8524 -0.0407548 45.4749 0.880796C46.2029 1.06599 46.4341 1.34818 46.447 2.12423C46.4512 2.4417 46.447 2.76358 46.447 3.13397C47.4746 3.13397 48.4467 3.13397 49.4144 3.13397C50.4678 3.13397 50.7846 3.45585 50.7846 4.5229C50.7846 15.0744 50.7846 25.6304 50.7846 36.1819C50.7846 37.4121 50.1209 37.8046 49.0376 37.2534C46.6996 36.0673 44.2203 35.3089 41.664 34.8106C36.457 33.8009 31.2758 33.9861 26.1331 35.2648C25.3281 35.4632 24.5916 35.2471 23.8422 35.0796C17.6847 33.695 11.5743 33.8758 5.53664 35.7542C4.23063 36.1599 2.97171 36.7331 1.70852 37.2798C0.843556 37.6546 0.453893 37.5753 0 36.7463C0 25.7803 0 14.8143 0 3.84828ZM6.28171 2.74153C6.28171 11.6484 6.28171 20.5111 6.28171 29.4092C12.5677 28.7566 18.7167 28.8404 24.3818 32.2444C24.3946 32.1562 24.4032 32.1209 24.4032 32.0856C24.3946 23.849 24.3903 15.608 24.3732 7.36693C24.3732 7.17732 24.2619 6.94363 24.1291 6.79812C22.669 5.16226 20.9005 3.98938 18.8794 3.24861C14.7472 1.7318 10.5466 1.84644 6.28171 2.74153ZM44.4815 2.7724C44.3873 2.74594 44.3102 2.71949 44.2332 2.70185C41.0987 2.02722 37.9472 1.84644 34.7828 2.44611C31.6697 3.03696 28.895 4.32008 26.6898 6.72757C26.5185 6.91276 26.39 7.22142 26.39 7.47275C26.3772 15.5815 26.3772 23.6815 26.3815 31.7858C26.3815 31.9269 26.3986 32.068 26.4072 32.1562C27.5376 31.6315 28.621 31.0406 29.7643 30.6173C33.9649 29.0476 38.3154 28.8492 42.7173 29.2504C43.2997 29.3034 43.882 29.3519 44.4858 29.4092C44.4815 20.4803 44.4815 11.6352 44.4815 2.7724ZM1.98685 34.8988C7.68621 32.5442 13.5312 31.6976 19.5816 32.3193C19.4532 32.2444 19.3204 32.1915 19.1877 32.1518C16.6356 31.3669 14.0193 31.0054 11.3602 31.1156C9.43327 31.195 7.50636 31.4022 5.58374 31.5698C4.82582 31.6359 4.37621 31.2876 4.32911 30.5115C4.31627 30.3263 4.32483 30.1367 4.32483 29.9515C4.32483 21.9177 4.32483 13.8795 4.32483 5.8457C4.32483 5.62965 4.32483 5.41359 4.32483 5.20194C3.50268 5.20194 2.75333 5.20194 1.98685 5.20194C1.98685 15.0921 1.98685 24.9469 1.98685 34.8988ZM46.5026 5.18871C46.5026 5.45327 46.5026 5.6561 46.5026 5.86334C46.5026 13.928 46.5026 21.9971 46.5026 30.0618C46.5026 30.247 46.5155 30.4366 46.4941 30.6217C46.4256 31.2214 46.0445 31.5653 45.4621 31.5698C45.2651 31.5698 45.0639 31.5521 44.8712 31.5212C41.6682 31.0627 38.4524 30.9039 35.2409 31.3493C33.8707 31.5389 32.5176 31.9049 31.1602 32.1871C31.1687 32.24 31.1773 32.2973 31.1859 32.3502C37.2449 31.6844 43.1027 32.5486 48.8063 34.8988C48.8063 24.9469 48.8063 15.0744 48.8063 5.1843C48.0313 5.18871 47.2948 5.18871 46.5026 5.18871Z" fill="white"/>
<path d="M74.4009 21.2783H63.8286V27.0545H75.4928L74.9147 31.0802H59.1826V8.34131H74.8505V12.367H63.8286V17.2173H74.4009V21.2783Z" fill="white"/>
<path d="M78.8881 8.34131H87.6662C94.0764 8.34131 98.3027 12.6977 98.3027 19.4264C98.3027 26.058 94.2005 31.0714 87.4392 31.0714H78.8838V8.34131H78.8881ZM83.6625 27.1162H87.2508C91.4815 27.1162 93.3698 23.8489 93.3698 19.4264C93.3698 15.6961 91.6056 12.3009 87.2808 12.3009H83.6582V27.1162H83.6625Z" fill="white"/>
<path d="M106.957 8.34131V21.8691C106.957 26.2564 109.137 27.5439 111.539 27.5439C114.262 27.5439 115.962 26.0271 115.962 21.8691V8.34131H120.767V21.6399C120.767 29.4267 116.343 31.4065 111.475 31.4065C106.477 31.4065 102.183 29.3297 102.183 21.7413V8.34131H106.957Z" fill="white"/>
<path d="M130.636 12.367H123.909V8.34131H142.108V12.367H135.411V31.0758H130.636V12.367Z" fill="white"/>
<path d="M160.272 21.2783H149.7V27.0545H161.364L160.786 31.0802H145.054V8.34131H160.722V12.367H149.7V17.2173H160.272V21.2783Z" fill="white"/>
<path d="M183.857 24.0475C182.992 28.3025 179.884 31.4066 174.343 31.4066C167.324 31.4066 164.027 26.2918 164.027 19.8277C164.027 13.5929 167.457 8.01514 174.57 8.01514C180.466 8.01514 183.318 11.547 183.862 15.3743H179.087C178.608 13.5929 177.421 11.8424 174.411 11.8424C170.472 11.8424 168.965 15.5066 168.965 19.6602C168.965 23.4875 170.279 27.5441 174.54 27.5441C177.678 27.5441 178.642 25.4011 179.057 24.0475H183.857Z" fill="white"/>
<path d="M187.54 8.34131H192.314V17.182H201.221V8.34131H205.995V31.0758H201.221V21.243H192.314V31.0758H187.54V8.34131Z" fill="white"/>
</svg>
