<svg width="610" height="460" viewBox="0 0 610 460" fill="none" xmlns="http://www.w3.org/2000/svg">
<path d="M511.699 43.2249H120.75C112.209 43.2249 105.286 50.1518 105.286 58.6966V311.891C105.286 320.436 112.209 327.362 120.75 327.362H511.699C520.239 327.362 527.162 320.436 527.162 311.891V58.6966C527.162 50.1518 520.239 43.2249 511.699 43.2249Z" fill="white"/>
<path d="M511.699 328.156H120.734C116.429 328.148 112.303 326.433 109.259 323.387C106.215 320.342 104.501 316.213 104.493 311.906V58.6202C104.521 54.3262 106.244 50.2171 109.286 47.1879C112.328 44.1586 116.443 42.4545 120.734 42.4465H511.699C516.005 42.4506 520.133 44.1639 523.178 47.2105C526.223 50.2571 527.936 54.388 527.94 58.6965V311.982C527.916 316.277 526.194 320.389 523.152 323.419C520.109 326.449 515.992 328.152 511.699 328.156ZM120.734 44.0181C116.846 44.0262 113.119 45.5752 110.37 48.3262C107.62 51.0772 106.072 54.806 106.064 58.6965V311.982C106.072 315.873 107.62 319.601 110.37 322.352C113.119 325.103 116.846 326.652 120.734 326.66H511.699C515.588 326.656 519.317 325.109 522.068 322.357C524.818 319.605 526.365 315.874 526.369 311.982V58.6965C526.365 54.8048 524.818 51.0736 522.068 48.3218C519.317 45.5699 515.588 44.0222 511.699 44.0181H120.734Z" fill="#229B9F"/>
<path d="M338.58 327.362H283.192V384.077H338.58V327.362Z" fill="#28A0A4"/>
<path d="M338.55 384.84H283.192C282.99 384.84 282.796 384.759 282.653 384.616C282.51 384.473 282.43 384.279 282.43 384.077V327.362C282.43 327.263 282.449 327.164 282.488 327.073C282.527 326.981 282.583 326.898 282.654 326.828C282.725 326.759 282.809 326.704 282.902 326.667C282.994 326.63 283.093 326.613 283.192 326.615H338.55C338.748 326.615 338.938 326.693 339.078 326.834C339.218 326.974 339.297 327.164 339.297 327.362V384.107C339.289 384.302 339.208 384.486 339.069 384.622C338.93 384.758 338.744 384.836 338.55 384.84ZM283.924 383.314H337.787V328.125H283.955L283.924 383.314Z" fill="#28A0A4"/>
<path d="M367.327 384.077H254.446C251.372 384.077 248.88 386.57 248.88 389.646V389.661C248.88 392.737 251.372 395.231 254.446 395.231H367.327C370.401 395.231 372.893 392.737 372.893 389.661V389.646C372.893 386.57 370.401 384.077 367.327 384.077Z" fill="#28A0A4"/>
<path d="M367.312 395.978H254.462C252.783 395.978 251.173 395.311 249.986 394.124C248.8 392.936 248.133 391.326 248.133 389.646C248.133 387.967 248.8 386.356 249.986 385.169C251.173 383.981 252.783 383.314 254.462 383.314H367.312C368.99 383.314 370.6 383.981 371.787 385.169C372.973 386.356 373.64 387.967 373.64 389.646C373.64 391.326 372.973 392.936 371.787 394.124C370.6 395.311 368.99 395.978 367.312 395.978ZM254.462 384.84C253.232 384.909 252.076 385.446 251.23 386.342C250.385 387.237 249.914 388.422 249.914 389.654C249.914 390.886 250.385 392.071 251.23 392.966C252.076 393.861 253.232 394.398 254.462 394.468H367.312C367.966 394.505 368.621 394.407 369.237 394.182C369.853 393.957 370.416 393.608 370.893 393.158C371.369 392.707 371.749 392.164 372.008 391.561C372.268 390.959 372.401 390.31 372.401 389.654C372.401 388.998 372.268 388.349 372.008 387.746C371.749 387.144 371.369 386.6 370.893 386.15C370.416 385.699 369.853 385.351 369.237 385.125C368.621 384.9 367.966 384.803 367.312 384.84H254.462Z" fill="#28A0A4"/>
<path d="M527.162 56.896H105.286V287.096H527.162V56.896Z" fill="white"/>
<path d="M527.162 287.874H105.225C105.122 287.876 105.019 287.858 104.923 287.819C104.827 287.781 104.739 287.724 104.665 287.652C104.591 287.579 104.533 287.493 104.493 287.397C104.453 287.302 104.432 287.2 104.432 287.096V56.8961C104.426 56.7881 104.442 56.68 104.479 56.5784C104.516 56.4768 104.573 56.3838 104.647 56.3052C104.722 56.2266 104.811 56.1641 104.911 56.1213C105.01 56.0786 105.117 56.0567 105.225 56.0569H527.162C527.265 56.0569 527.368 56.0775 527.463 56.1175C527.559 56.1576 527.645 56.2163 527.717 56.2902C527.79 56.3641 527.847 56.4517 527.885 56.5478C527.923 56.644 527.942 56.7468 527.94 56.8503V287.096C527.94 287.198 527.92 287.299 527.881 287.394C527.841 287.488 527.784 287.574 527.712 287.646C527.64 287.719 527.554 287.776 527.46 287.815C527.365 287.854 527.264 287.874 527.162 287.874ZM106.064 286.348H526.369V57.6743H106.064V286.348Z" fill="#229B9F"/>
<path d="M330.925 243.351H134.398C134.196 243.351 134.002 243.271 133.859 243.128C133.716 242.984 133.636 242.79 133.636 242.588V88.0991C133.636 87.8968 133.716 87.7027 133.859 87.5596C134.002 87.4166 134.196 87.3362 134.398 87.3362H330.925C331.127 87.3362 331.321 87.4166 331.464 87.5596C331.607 87.7027 331.687 87.8968 331.687 88.0991V242.588C331.687 242.79 331.607 242.984 331.464 243.128C331.321 243.271 331.127 243.351 330.925 243.351ZM135.146 241.825H330.178V88.8467H135.161L135.146 241.825Z" fill="#28A0A4"/>
<path d="M282.644 122.003H182.863C182.661 122.003 182.467 121.922 182.324 121.779C182.181 121.636 182.101 121.442 182.101 121.24C182.101 121.037 182.181 120.843 182.324 120.7C182.467 120.557 182.661 120.477 182.863 120.477H282.644C282.846 120.477 283.04 120.557 283.183 120.7C283.326 120.843 283.406 121.037 283.406 121.24C283.406 121.442 283.326 121.636 283.183 121.779C283.04 121.922 282.846 122.003 282.644 122.003Z" fill="#229B9F"/>
<path d="M167.567 122.003H159.408C159.206 122.003 159.012 121.922 158.869 121.779C158.726 121.636 158.646 121.442 158.646 121.24C158.646 121.037 158.726 120.843 158.869 120.7C159.012 120.557 159.206 120.477 159.408 120.477H167.567C167.769 120.477 167.963 120.557 168.106 120.7C168.249 120.843 168.329 121.037 168.329 121.24C168.329 121.442 168.249 121.636 168.106 121.779C167.963 121.922 167.769 122.003 167.567 122.003Z" fill="#229B9F"/>
<path d="M309.377 144.142H242.734C242.532 144.142 242.338 144.062 242.195 143.919C242.052 143.776 241.972 143.582 241.972 143.379C241.972 143.177 242.052 142.983 242.195 142.84C242.338 142.697 242.532 142.616 242.734 142.616H309.377C309.579 142.616 309.773 142.697 309.916 142.84C310.059 142.983 310.139 143.177 310.139 143.379C310.139 143.582 310.059 143.776 309.916 143.919C309.773 144.062 309.579 144.142 309.377 144.142Z" fill="#229B9F"/>
<path d="M223.474 144.142H182.863C182.661 144.142 182.467 144.062 182.324 143.919C182.181 143.776 182.101 143.582 182.101 143.379C182.101 143.177 182.181 142.983 182.324 142.84C182.467 142.697 182.661 142.616 182.863 142.616H223.474C223.676 142.616 223.87 142.697 224.013 142.84C224.156 142.983 224.236 143.177 224.236 143.379C224.236 143.582 224.156 143.776 224.013 143.919C223.87 144.062 223.676 144.142 223.474 144.142Z" fill="#229B9F"/>
<path d="M167.567 144.142H159.408C159.206 144.142 159.012 144.062 158.869 143.919C158.726 143.776 158.646 143.582 158.646 143.379C158.646 143.177 158.726 142.983 158.869 142.84C159.012 142.697 159.206 142.616 159.408 142.616H167.567C167.769 142.616 167.963 142.697 168.106 142.84C168.249 142.983 168.329 143.177 168.329 143.379C168.329 143.582 168.249 143.776 168.106 143.919C167.963 144.062 167.769 144.142 167.567 144.142Z" fill="#229B9F"/>
<path d="M277.916 166.282H182.863C182.661 166.282 182.467 166.202 182.324 166.058C182.181 165.915 182.101 165.721 182.101 165.519C182.101 165.317 182.181 165.123 182.324 164.98C182.467 164.836 182.661 164.756 182.863 164.756H277.916C278.117 164.76 278.309 164.842 278.451 164.984C278.593 165.126 278.675 165.318 278.679 165.519C278.679 165.721 278.598 165.915 278.455 166.058C278.312 166.202 278.119 166.282 277.916 166.282Z" fill="#229B9F"/>
<path d="M167.567 166.282H159.408C159.206 166.282 159.012 166.202 158.869 166.058C158.726 165.915 158.646 165.721 158.646 165.519C158.649 165.318 158.731 165.126 158.873 164.984C159.015 164.842 159.207 164.76 159.408 164.756H167.567C167.769 164.756 167.963 164.836 168.106 164.98C168.249 165.123 168.329 165.317 168.329 165.519C168.329 165.721 168.249 165.915 168.106 166.058C167.963 166.202 167.769 166.282 167.567 166.282Z" fill="#229B9F"/>
<path d="M270.627 188.422H224.877C224.675 188.422 224.481 188.341 224.338 188.198C224.195 188.055 224.114 187.861 224.114 187.659C224.114 187.456 224.195 187.262 224.338 187.119C224.481 186.976 224.675 186.896 224.877 186.896H270.627C270.828 186.9 271.019 186.981 271.162 187.124C271.304 187.266 271.385 187.458 271.389 187.659C271.389 187.861 271.309 188.055 271.166 188.198C271.023 188.341 270.829 188.422 270.627 188.422Z" fill="#229B9F"/>
<path d="M242.735 188.422H182.863C182.661 188.422 182.467 188.341 182.324 188.198C182.181 188.055 182.101 187.861 182.101 187.659C182.101 187.456 182.181 187.262 182.324 187.119C182.467 186.976 182.661 186.896 182.863 186.896H242.735C242.937 186.896 243.131 186.976 243.274 187.119C243.417 187.262 243.497 187.456 243.497 187.659C243.497 187.861 243.417 188.055 243.274 188.198C243.131 188.341 242.937 188.422 242.735 188.422Z" fill="#229B9F"/>
<path d="M167.567 188.422H159.408C159.206 188.422 159.012 188.341 158.869 188.198C158.726 188.055 158.646 187.861 158.646 187.659C158.649 187.458 158.731 187.266 158.873 187.124C159.015 186.981 159.207 186.9 159.408 186.896H167.567C167.769 186.896 167.963 186.976 168.106 187.119C168.249 187.262 168.329 187.456 168.329 187.659C168.329 187.861 168.249 188.055 168.106 188.198C167.963 188.341 167.769 188.422 167.567 188.422Z" fill="#229B9F"/>
<path d="M247.752 209.951H182.863C182.661 209.951 182.467 209.87 182.324 209.727C182.181 209.584 182.101 209.39 182.101 209.188C182.101 208.986 182.181 208.792 182.324 208.648C182.467 208.505 182.661 208.425 182.863 208.425H247.752C247.954 208.425 248.148 208.505 248.291 208.648C248.434 208.792 248.514 208.986 248.514 209.188C248.514 209.39 248.434 209.584 248.291 209.727C248.148 209.87 247.954 209.951 247.752 209.951Z" fill="#229B9F"/>
<path d="M167.567 209.951H159.408C159.206 209.951 159.012 209.87 158.869 209.727C158.726 209.584 158.646 209.39 158.646 209.188C158.646 208.986 158.726 208.792 158.869 208.648C159.012 208.505 159.206 208.425 159.408 208.425H167.567C167.769 208.425 167.963 208.505 168.106 208.648C168.249 208.792 168.329 208.986 168.329 209.188C168.329 209.39 168.249 209.584 168.106 209.727C167.963 209.87 167.769 209.951 167.567 209.951Z" fill="#229B9F"/>
<path d="M484.233 190.466L489.784 174.613C489.784 174.613 486.353 166.511 487.009 161.979C487.665 157.447 489.784 149.269 491.584 150.062C493.383 150.856 492.377 154.548 493.688 160.621C493.688 160.621 504.257 141.335 507.154 141.869C510.052 142.403 509.533 144.631 508.679 146.019C508.679 146.019 511.851 143.318 512.903 145.165C513.203 145.737 513.359 146.373 513.359 147.018C513.359 147.664 513.203 148.3 512.903 148.872C512.903 148.872 515.145 146.355 515.953 148.079C516.132 148.726 516.165 149.405 516.052 150.067C515.939 150.729 515.681 151.358 515.298 151.909C515.298 151.909 517.936 149.391 518.195 151.634C518.454 153.877 498.004 197.851 498.004 197.851" fill="white"/>
<path d="M498.095 198.645C497.984 198.666 497.871 198.666 497.76 198.645C497.57 198.555 497.423 198.394 497.352 198.197C497.28 198 497.29 197.782 497.378 197.592C505.415 180.335 517.402 153.892 517.493 151.817C517.511 151.742 517.511 151.664 517.493 151.588C516.928 151.835 516.412 152.182 515.968 152.611C515.823 152.739 515.636 152.81 515.442 152.81C515.248 152.81 515.061 152.739 514.916 152.611C514.768 152.486 514.672 152.31 514.647 152.118C514.622 151.927 514.669 151.732 514.779 151.573C515.096 151.139 515.313 150.641 515.416 150.114C515.519 149.586 515.504 149.043 515.374 148.521C515.358 148.463 515.326 148.41 515.282 148.369C514.634 148.574 514.061 148.967 513.635 149.498C513.508 149.643 513.332 149.736 513.14 149.759C512.948 149.782 512.755 149.732 512.598 149.62C512.438 149.506 512.327 149.337 512.284 149.145C512.242 148.954 512.272 148.753 512.369 148.583C512.603 148.132 512.725 147.633 512.725 147.125C512.725 146.618 512.603 146.118 512.369 145.668C512.339 145.605 512.294 145.55 512.238 145.508C512.183 145.465 512.118 145.437 512.049 145.424C511.034 145.571 510.087 146.024 509.334 146.721C509.195 146.843 509.016 146.911 508.831 146.911C508.646 146.911 508.467 146.843 508.328 146.721C508.187 146.603 508.092 146.439 508.059 146.258C508.025 146.077 508.056 145.89 508.145 145.729C508.368 145.42 508.52 145.066 508.591 144.692C508.662 144.317 508.65 143.932 508.557 143.563C508.374 143.151 507.886 142.876 507.108 142.739C505.491 142.739 499.285 152.306 494.481 161.048C494.406 161.192 494.287 161.308 494.142 161.379C493.996 161.45 493.832 161.473 493.673 161.445C493.515 161.421 493.367 161.35 493.25 161.241C493.133 161.133 493.052 160.991 493.017 160.835C492.574 158.709 492.304 156.55 492.209 154.381C492.071 152.29 491.965 151.085 491.37 150.825C490.531 151.131 488.655 156.517 487.832 162.147C487.207 166.404 490.516 174.354 490.546 174.354C490.614 174.536 490.614 174.736 490.546 174.918L484.95 190.726C484.916 190.823 484.862 190.914 484.793 190.991C484.724 191.068 484.64 191.13 484.546 191.174C484.452 191.218 484.351 191.243 484.247 191.247C484.144 191.251 484.04 191.235 483.943 191.199C483.846 191.166 483.756 191.114 483.679 191.046C483.603 190.979 483.54 190.896 483.496 190.803C483.452 190.711 483.427 190.61 483.423 190.508C483.418 190.405 483.434 190.303 483.47 190.207L488.915 174.643C488.289 173.118 485.575 166.129 486.2 161.872C486.612 159.05 488.305 150.703 490.592 149.422C490.788 149.303 491.009 149.233 491.237 149.217C491.465 149.201 491.694 149.24 491.904 149.33C493.429 149.986 493.535 151.771 493.703 154.228C493.779 155.388 493.856 156.761 494.084 158.317C497.76 151.756 504.47 140.618 507.306 141.091C507.847 141.142 508.367 141.324 508.822 141.622C509.276 141.92 509.651 142.324 509.914 142.8C510.113 143.228 510.198 143.702 510.158 144.173C510.8 143.838 511.527 143.7 512.247 143.776C512.544 143.827 512.825 143.944 513.071 144.119C513.316 144.293 513.519 144.52 513.665 144.783C514.032 145.436 514.227 146.171 514.23 146.919C514.604 146.739 515.021 146.665 515.434 146.706C515.72 146.757 515.988 146.879 516.214 147.06C516.441 147.241 516.618 147.476 516.731 147.743C517.031 148.456 517.11 149.243 516.959 150.002C517.297 149.894 517.659 149.894 517.997 150.002C518.303 150.122 518.566 150.331 518.751 150.604C518.936 150.876 519.035 151.198 519.033 151.527C519.308 153.816 503.6 187.811 498.781 198.172C498.722 198.306 498.627 198.422 498.505 198.506C498.384 198.589 498.242 198.637 498.095 198.645Z" fill="#229B9F"/>
<path d="M382.195 252.231C382.195 252.231 368.47 276.461 367.144 287.096H460.413C460.413 287.096 452.147 267.367 447.45 253.971L382.195 252.231Z" fill="#229B9F"/>
<path d="M460.413 287.844H367.144C367.039 287.844 366.934 287.822 366.837 287.78C366.74 287.738 366.653 287.677 366.58 287.6C366.508 287.519 366.454 287.425 366.42 287.323C366.386 287.22 366.373 287.112 366.382 287.005C367.693 276.324 380.976 252.842 381.54 251.911C381.601 251.787 381.697 251.685 381.817 251.617C381.937 251.549 382.074 251.518 382.211 251.529L447.466 253.269C447.621 253.275 447.771 253.328 447.896 253.42C448.021 253.513 448.116 253.641 448.167 253.788C452.742 267.001 461.038 286.654 461.115 286.852C461.163 286.968 461.182 287.095 461.169 287.22C461.155 287.346 461.111 287.466 461.038 287.569C460.964 287.662 460.869 287.736 460.76 287.784C460.651 287.832 460.532 287.852 460.413 287.844ZM368.029 286.318H459.269C457.531 282.107 450.958 266.162 446.902 254.703L382.638 252.979C380.9 256.092 369.737 276.354 368.029 286.333V286.318Z" fill="#28A0A4"/>
<path d="M305.823 212.087C305.596 212.069 305.372 212.028 305.152 211.965C301.508 211.049 296.872 205.694 294.081 203.237C287.132 197.3 281.086 190.382 276.132 182.7C275.369 181.691 274.876 180.504 274.698 179.251C274.725 178.177 275.024 177.127 275.567 176.2C277.763 172.004 281.942 167.045 286.807 169.273C288.606 170.097 299.983 179.496 299.983 181.128C299.624 178.247 299.594 175.334 299.891 172.446C300.356 172.224 300.879 172.154 301.386 172.247C301.893 172.34 302.357 172.592 302.712 172.965C303.404 173.726 303.924 174.626 304.237 175.605C305.122 177.832 316.437 206.67 317.383 206.121C314.15 208.089 309.941 212.575 305.823 212.087Z" fill="white"/>
<path d="M306.525 212.911C306.286 212.926 306.047 212.926 305.808 212.911C305.552 212.88 305.297 212.834 305.046 212.774C302.072 212.026 298.656 208.715 295.896 206.045C295.042 205.221 294.264 204.519 293.608 203.878C286.597 197.897 280.498 190.921 275.506 183.173C274.68 182.041 274.155 180.718 273.981 179.328C273.987 178.108 274.319 176.912 274.942 175.864C276.208 173.423 280.844 165.687 287.142 168.571C291.375 171.475 295.327 174.77 298.946 178.412C298.846 176.376 298.902 174.336 299.113 172.309C299.129 172.188 299.171 172.071 299.237 171.968C299.303 171.865 299.391 171.779 299.495 171.714C300.106 171.408 300.798 171.304 301.472 171.416C302.146 171.529 302.767 171.852 303.246 172.339C304.022 173.18 304.605 174.18 304.954 175.269L305.274 176.078C314.851 200.399 317.139 204.595 317.657 205.282C317.792 205.337 317.908 205.429 317.994 205.546C318.08 205.663 318.133 205.802 318.145 205.947C318.158 206.091 318.13 206.237 318.066 206.367C318.001 206.498 317.902 206.608 317.779 206.686C316.956 207.204 316.071 207.891 315.126 208.608C312.503 210.637 309.575 212.911 306.525 212.911ZM284.443 169.486C280.371 169.486 277.291 174.72 276.345 176.535C275.866 177.346 275.599 178.264 275.567 179.206C275.744 180.313 276.189 181.361 276.864 182.257C281.78 189.868 287.774 196.725 294.66 202.612C295.362 203.222 296.185 204 297.009 204.839C299.617 207.372 302.865 210.531 305.427 211.171C305.612 211.223 305.8 211.259 305.991 211.278C308.721 211.599 311.649 209.34 314.241 207.342C314.943 206.808 315.614 206.289 316.27 205.816C315.065 203.893 312.167 197.622 303.887 176.627L303.566 175.818C303.297 174.945 302.844 174.139 302.24 173.453C302.041 173.256 301.801 173.106 301.538 173.014C301.274 172.921 300.993 172.889 300.715 172.919C300.466 175.596 300.506 178.292 300.837 180.96V181.174C300.813 181.353 300.728 181.519 300.596 181.643C300.464 181.766 300.293 181.84 300.112 181.85C299.931 181.861 299.753 181.809 299.607 181.702C299.461 181.595 299.356 181.441 299.312 181.265C299.303 181.225 299.303 181.184 299.312 181.143C298.732 179.511 288.362 170.844 286.608 170.035C285.911 169.688 285.145 169.5 284.367 169.486H284.443Z" fill="#229B9F"/>
<path d="M455.883 161.506C455.883 161.506 463.798 169.135 465.903 172.187C468.007 175.238 469.959 213.918 469.959 213.918L481.946 184.927L502.076 192.785C502.076 192.785 489.784 255.573 476.852 256.87C463.92 258.167 438.834 233.738 438.834 233.738L455.883 161.506Z" fill="#28A0A4"/>
<path d="M397.125 155.235C397.125 155.235 373.945 159.812 368.287 166.846C362.629 173.88 379.786 237.751 380.121 255.344C380.121 255.344 420.137 262.332 447.45 254.016C447.45 254.016 456.935 220.341 459.406 200.979C461.876 181.616 458.704 164.71 455.883 161.552C453.062 158.393 442.25 156.288 442.25 156.288C442.25 156.288 402.417 156.257 397.125 155.235Z" fill="#28A0A4"/>
<path d="M461.115 154.655C461.62 152.4 461.89 150.099 461.923 147.789C461.969 146.409 461.757 145.032 461.298 143.73C459.59 139.489 453.901 137.627 452.971 133.05C452.193 129.281 453.612 125.985 452.62 122.369C451.629 118.753 450.668 117.257 451.095 113.077C451.72 105.686 450.515 98.255 447.588 91.4406C444.873 85.0321 441.015 82.0873 436.333 77.2352C435.229 76.1608 433.909 75.3338 432.46 74.8092C420.077 69.9418 406.535 73.8021 400.283 86.0392C396.806 92.8443 395.296 100.58 391.27 107.08C388.433 111.658 384.346 115.671 383.264 120.95C382.318 125.527 384.041 130.028 382.958 134.682C382.634 136.257 382.03 137.761 381.174 139.122C380.184 140.469 379.031 141.689 377.743 142.754C374.834 145.199 372.269 148.027 370.118 151.161C369.428 152.249 368.841 153.398 368.364 154.594L461.115 154.655Z" fill="white"/>
<path d="M461.114 155.449H368.287C368.158 155.45 368.029 155.418 367.915 155.357C367.8 155.295 367.703 155.206 367.632 155.098C367.575 154.984 367.546 154.859 367.546 154.731C367.546 154.604 367.575 154.479 367.632 154.365C368.131 153.126 368.744 151.936 369.462 150.81C371.663 147.615 374.278 144.726 377.239 142.22L377.407 142.082C378.584 141.104 379.639 139.987 380.548 138.756C381.352 137.473 381.92 136.058 382.226 134.575C382.603 132.325 382.634 130.03 382.317 127.77C382.037 125.466 382.083 123.134 382.455 120.843C383.232 116.967 385.581 113.763 387.838 110.651C388.768 109.369 389.729 108.057 390.552 106.714C392.659 103.023 394.386 99.1272 395.707 95.0873C396.79 91.8768 398.073 88.7376 399.55 85.6883C405.65 73.6038 419.375 68.828 432.703 74.092C434.265 74.6467 435.686 75.5373 436.867 76.7012C437.766 77.6319 438.636 78.5017 439.474 79.3256C442.982 82.8197 446.032 85.8408 448.289 91.1507C451.263 98.0864 452.483 105.648 451.842 113.168C451.606 115.481 451.914 117.817 452.742 119.989C452.955 120.66 453.184 121.362 453.398 122.171C453.83 124.072 453.917 126.036 453.657 127.969C453.456 129.623 453.492 131.298 453.764 132.943C454.206 135.094 455.929 136.635 457.774 138.268C459.576 139.641 461.037 141.411 462.045 143.44C462.538 144.835 462.766 146.31 462.716 147.789C462.692 150.155 462.421 152.513 461.907 154.823C461.868 155.003 461.768 155.164 461.623 155.278C461.478 155.393 461.298 155.453 461.114 155.449ZM369.492 153.923H460.55C460.973 151.916 461.193 149.871 461.206 147.82C461.254 146.539 461.062 145.261 460.641 144.051C459.722 142.25 458.402 140.684 456.783 139.473C454.846 137.734 452.833 135.949 452.208 133.294C451.906 131.509 451.86 129.69 452.071 127.892C452.311 126.134 452.244 124.348 451.873 122.613C451.659 121.835 451.431 121.087 451.232 120.492C450.334 118.125 450 115.581 450.256 113.061C450.88 105.787 449.702 98.4709 446.825 91.761C444.69 86.7411 441.884 83.9641 438.346 80.4547C437.507 79.6155 436.623 78.7458 435.723 77.7998C434.699 76.8008 433.471 76.0356 432.124 75.5568C419.543 70.6132 406.717 75.0686 400.938 86.4054C399.502 89.3775 398.249 92.4349 397.186 95.5603C395.842 99.7108 394.079 103.714 391.925 107.507C391.071 108.881 390.095 110.223 389.149 111.52C386.877 114.572 384.742 117.624 384.025 121.118C383.685 123.263 383.649 125.447 383.919 127.602C384.227 130.04 384.154 132.511 383.705 134.926C383.367 136.595 382.726 138.188 381.814 139.626C380.83 140.968 379.688 142.187 378.413 143.257L378.246 143.395C375.394 145.805 372.871 148.581 370.743 151.649C370.272 152.36 369.854 153.105 369.492 153.877V153.923Z" fill="#28A0A4"/>
<path d="M431.575 151.756C431.575 151.756 434.625 196.386 419.07 193.396C398.299 188.971 407.739 157.615 407.739 157.615L408.09 151.756L408.867 138.13L409.615 125.39L431.453 125.146L432.291 135.552L432.551 138.924L431.575 151.756Z" fill="white"/>
<path d="M420.489 194.326C419.946 194.322 419.404 194.266 418.872 194.159C416.607 193.752 414.457 192.86 412.569 191.543C410.682 190.226 409.102 188.516 407.938 186.529C401.701 175.971 406.413 159.065 406.916 157.539L408.792 125.405C408.803 125.207 408.891 125.021 409.035 124.884C409.18 124.748 409.371 124.673 409.57 124.673L431.408 124.429C431.605 124.428 431.796 124.501 431.943 124.634C432.09 124.766 432.182 124.949 432.201 125.146L433.299 138.878L432.307 151.771C432.445 153.77 434.381 184.439 425.43 192.404C424.081 193.641 422.318 194.327 420.489 194.326ZM410.317 126.244L408.487 157.737C408.494 157.798 408.494 157.86 408.487 157.92C408.487 158.104 403.271 175.589 409.326 185.828C410.384 187.617 411.817 189.157 413.525 190.342C415.233 191.527 417.176 192.329 419.223 192.694C420.136 192.9 421.086 192.88 421.989 192.635C422.893 192.39 423.723 191.929 424.408 191.29C432.902 183.752 430.798 152.199 430.767 151.893V151.771L431.758 138.939L430.721 126.016L410.317 126.244Z" fill="#28A0A4"/>
<path d="M432.505 138.924C430.806 141.903 428.389 144.41 425.475 146.217C420.809 149.269 414.221 151.954 408.502 151.024L408.883 138.131C413.063 138.702 417.3 138.702 421.48 138.131C425.209 137.924 428.873 137.067 432.307 135.598L432.505 138.924Z" fill="#28A0A4"/>
<path d="M410.758 151.97C409.941 151.967 409.125 151.901 408.318 151.771C408.137 151.739 407.972 151.643 407.855 151.5C407.738 151.358 407.675 151.178 407.678 150.993L408.074 138.1C408.077 137.994 408.102 137.89 408.15 137.795C408.197 137.7 408.265 137.616 408.349 137.551C408.427 137.477 408.522 137.424 408.626 137.394C408.729 137.365 408.838 137.361 408.944 137.383C413.052 137.949 417.218 137.949 421.327 137.383C424.971 137.18 428.552 136.343 431.91 134.911C432.02 134.851 432.143 134.82 432.268 134.82C432.394 134.82 432.517 134.851 432.627 134.911C432.734 134.972 432.824 135.058 432.89 135.162C432.957 135.265 432.997 135.384 433.008 135.506L433.267 138.878C433.284 139.022 433.252 139.167 433.176 139.29C431.414 142.417 428.884 145.043 425.825 146.919C421.372 149.975 416.153 151.724 410.758 151.97ZM409.233 150.444C413.808 150.947 419.603 149.178 425.017 145.653C427.79 143.968 430.105 141.626 431.758 138.833L431.575 136.696C428.337 137.879 424.948 138.598 421.51 138.833C417.552 139.386 413.541 139.442 409.569 139L409.233 150.444Z" fill="#28A0A4"/>
<path d="M421.403 141.198H419.162C414.072 141.25 409.17 139.279 405.532 135.717C401.895 132.155 399.82 127.293 399.764 122.201C399.974 116.299 400.529 110.415 401.426 104.578C401.426 104.578 410.225 101.435 417.225 98.7798C428.906 94.3702 432.048 88.0991 432.048 88.0991C432.414 92.2724 433.337 96.3778 434.793 100.306C436.295 103.119 438.034 105.799 439.993 108.316C439.993 108.316 440.344 117.776 440.374 121.743C440.409 124.268 439.945 126.774 439.009 129.119C438.074 131.464 436.685 133.602 434.923 135.409C433.161 137.216 431.06 138.657 428.74 139.651C426.42 140.644 423.927 141.17 421.403 141.198Z" fill="white"/>
<path d="M418.948 142.006C413.677 142.002 408.621 139.916 404.88 136.201C401.139 132.487 399.015 127.444 398.971 122.171C399.181 116.228 399.741 110.302 400.648 104.425C400.664 104.284 400.72 104.15 400.809 104.039C400.898 103.928 401.017 103.845 401.151 103.8C401.243 103.8 410.088 100.58 416.95 97.9864C428.144 93.7599 431.316 87.7024 431.346 87.6414C431.39 87.4424 431.51 87.2686 431.681 87.1573C431.851 87.0459 432.059 87.0059 432.258 87.0459C432.458 87.0858 432.634 87.2025 432.749 87.371C432.863 87.5394 432.907 87.746 432.871 87.9466C433.231 92.0505 434.133 96.0885 435.555 99.9547C437.017 102.752 438.711 105.421 440.618 107.935C440.718 108.067 440.777 108.227 440.786 108.392C440.786 108.484 441.122 117.914 441.167 121.835C441.194 124.465 440.701 127.075 439.719 129.515C438.737 131.954 437.283 134.177 435.442 136.054C433.601 137.932 431.408 139.428 428.989 140.457C426.57 141.486 423.971 142.028 421.342 142.052H418.887L418.948 142.006ZM402.173 105.204C401.33 110.839 400.82 116.52 400.648 122.216C400.708 127.045 402.658 131.658 406.08 135.065C409.501 138.471 414.122 140.399 418.948 140.435H419.146H421.388C426.269 140.378 430.928 138.386 434.341 134.896C437.755 131.406 439.645 126.703 439.597 121.82C439.597 118.28 439.276 110.193 439.215 108.667C437.267 106.164 435.542 103.493 434.061 100.687C432.813 97.3372 431.948 93.8564 431.484 90.3116C429.654 92.585 425.567 96.5216 417.515 99.5733C411.521 101.831 404.018 104.517 402.127 105.204H402.173Z" fill="#28A0A4"/>
<path d="M419.055 122.033C418.22 122.031 417.385 121.985 416.554 121.896C416.322 121.868 416.1 121.788 415.905 121.661C415.709 121.534 415.545 121.364 415.426 121.163C413.901 118.768 417.286 109.308 418.338 106.455C418.417 106.261 418.567 106.105 418.757 106.02C418.948 105.935 419.164 105.926 419.36 105.997C419.552 106.072 419.708 106.219 419.793 106.407C419.879 106.595 419.887 106.809 419.818 107.004C417.469 113.351 416.051 119.592 416.768 120.355C418.54 120.517 420.324 120.486 422.09 120.263C422.266 120.281 422.431 120.358 422.559 120.481C422.687 120.604 422.769 120.767 422.794 120.942C422.818 121.118 422.783 121.297 422.695 121.45C422.606 121.604 422.468 121.723 422.303 121.789C421.227 121.941 420.142 122.022 419.055 122.033Z" fill="#28A0A4"/>
<path d="M428.878 113.311C429.611 113.303 430.188 111.835 430.169 110.031C430.149 108.228 429.539 106.773 428.806 106.781C428.073 106.789 427.496 108.257 427.515 110.06C427.535 111.864 428.145 113.319 428.878 113.311Z" fill="#28A0A4"/>
<path d="M411.383 112.893C412.116 112.885 412.693 111.417 412.674 109.613C412.654 107.81 412.044 106.355 411.311 106.363C410.578 106.371 410 107.839 410.02 109.642C410.04 111.446 410.65 112.901 411.383 112.893Z" fill="#28A0A4"/>
<path d="M408.456 151.756C404.308 149.528 397.781 152.855 397.125 155.174C396.469 157.493 399.062 194.067 408.456 199.697C412.528 202.154 419.848 193.396 419.848 193.396C419.848 193.396 409.371 188.803 408.456 151.756Z" fill="white"/>
<path d="M410.073 200.918C409.361 200.929 408.659 200.744 408.045 200.384C398.132 194.433 395.677 157.524 396.363 154.976C396.79 153.45 398.849 152.016 400.633 151.253C401.901 150.624 403.291 150.28 404.706 150.246C406.121 150.212 407.526 150.488 408.822 151.054C408.948 151.119 409.053 151.218 409.126 151.339C409.198 151.46 409.236 151.6 409.234 151.741C410.119 187.552 420.077 192.633 420.168 192.679C420.278 192.727 420.376 192.801 420.452 192.894C420.529 192.986 420.583 193.095 420.611 193.213C420.636 193.331 420.636 193.454 420.61 193.573C420.583 193.691 420.532 193.803 420.458 193.899C419.772 194.708 414.434 200.918 410.073 200.918ZM405.269 151.817C403.886 151.836 402.521 152.137 401.258 152.702C399.84 153.146 398.638 154.103 397.888 155.388C397.629 156.349 398.041 165.809 399.81 176.108C401.975 188.681 405.193 196.829 408.853 198.995C411.445 200.521 416.478 195.944 418.659 193.533C416.036 191.534 408.517 183.127 407.679 152.229C406.912 151.931 406.092 151.79 405.269 151.817Z" fill="#28A0A4"/>
<path d="M431.575 151.756C435.708 149.528 442.25 152.855 442.891 155.174C443.531 157.493 440.954 194.067 431.575 199.697C427.504 202.154 420.184 193.396 420.184 193.396C420.184 193.396 430.615 188.803 431.575 151.756Z" fill="white"/>
<path d="M429.897 200.918C425.551 200.918 420.214 194.708 419.527 193.899C419.452 193.803 419.398 193.693 419.369 193.574C419.34 193.456 419.337 193.332 419.36 193.213C419.387 193.093 419.444 192.983 419.523 192.89C419.603 192.797 419.704 192.724 419.817 192.679C419.909 192.679 429.852 187.552 430.736 151.741C430.741 151.601 430.781 151.464 430.853 151.344C430.925 151.224 431.027 151.124 431.148 151.054C432.445 150.488 433.85 150.212 435.264 150.246C436.679 150.28 438.069 150.624 439.337 151.253C441.121 152.016 443.18 153.404 443.607 154.976C444.309 157.524 441.853 194.433 431.926 200.384C431.313 200.748 430.61 200.933 429.897 200.918ZM421.327 193.564C423.614 196.096 428.51 200.598 431.117 199.026C434.793 196.829 438.01 188.681 440.161 176.139C441.445 169.307 442.093 162.37 442.097 155.418C441.334 154.14 440.13 153.185 438.712 152.733C436.715 151.74 434.406 151.581 432.292 152.29C431.453 183.157 423.95 191.565 421.327 193.564Z" fill="#28A0A4"/>
<path d="M409.569 125.39L431.407 125.146C431.407 125.146 428.083 136.681 419.726 135.552C411.369 134.423 409.569 125.39 409.569 125.39Z" fill="white"/>
<path d="M420.9 136.422C420.477 136.421 420.054 136.39 419.635 136.33C410.82 135.14 408.822 125.649 408.807 125.542C408.785 125.43 408.787 125.313 408.815 125.201C408.843 125.09 408.895 124.986 408.968 124.897C409.041 124.808 409.133 124.736 409.237 124.687C409.341 124.637 409.455 124.612 409.57 124.612L431.408 124.368C431.529 124.363 431.65 124.388 431.759 124.441C431.868 124.494 431.962 124.574 432.033 124.673C432.107 124.772 432.158 124.886 432.182 125.008C432.205 125.13 432.201 125.255 432.17 125.375C432.033 125.848 428.876 136.422 420.9 136.422ZM410.591 126.244C411.293 128.487 413.641 134.011 419.833 134.85C426.024 135.689 429.288 128.747 430.31 126.031L410.591 126.244Z" fill="#28A0A4"/>
<path d="M368.288 166.785L340.121 212.56L312.473 196.524L296.033 206.609C296.033 206.609 335.79 259.692 355.264 250.705C364.307 246.54 393.267 201.986 393.267 201.986L368.288 166.785Z" fill="#28A0A4"/>
<path d="M449.082 248.767H448.853C448.755 248.738 448.664 248.689 448.584 248.624C448.505 248.558 448.439 248.478 448.391 248.387C448.343 248.297 448.313 248.197 448.303 248.095C448.294 247.992 448.304 247.889 448.335 247.791C448.503 247.211 465.629 189.489 457.744 168.616C457.671 168.414 457.682 168.191 457.773 167.996C457.865 167.802 458.03 167.652 458.232 167.579C458.434 167.506 458.657 167.516 458.852 167.608C459.046 167.7 459.196 167.865 459.269 168.067C467.352 189.428 450.622 245.884 449.906 248.233C449.848 248.402 449.736 248.546 449.586 248.643C449.437 248.74 449.26 248.784 449.082 248.767Z" fill="#229B9F"/>
<path d="M379.725 251.499C379.533 251.5 379.348 251.431 379.205 251.304C379.061 251.177 378.97 251.002 378.947 250.812C378.871 250.309 371.871 199.438 369.523 187.979C369.486 187.775 369.529 187.565 369.642 187.392C369.756 187.219 369.931 187.096 370.133 187.048C370.337 187.008 370.549 187.049 370.723 187.163C370.897 187.277 371.019 187.455 371.063 187.659C373.427 199.179 380.426 250.095 380.503 250.599C380.529 250.805 380.473 251.013 380.348 251.178C380.222 251.344 380.037 251.453 379.832 251.484L379.725 251.499Z" fill="#28A0A4"/>
<path d="M464.179 228.749C464.079 228.77 463.975 228.77 463.874 228.749C463.684 228.668 463.533 228.516 463.453 228.325C463.373 228.134 463.371 227.919 463.447 227.727L480.024 187.582C480.105 187.392 480.257 187.241 480.448 187.161C480.639 187.081 480.853 187.079 481.046 187.155C481.141 187.194 481.228 187.251 481.302 187.323C481.375 187.396 481.433 187.482 481.473 187.577C481.513 187.672 481.533 187.774 481.533 187.877C481.533 187.98 481.513 188.082 481.473 188.177L464.911 228.322C464.841 228.454 464.735 228.564 464.606 228.639C464.477 228.714 464.329 228.752 464.179 228.749Z" fill="#229B9F"/>
<path d="M502.076 169.105C501.918 169.101 501.765 169.052 501.635 168.963C501.504 168.873 501.403 168.747 501.344 168.601C499.422 163.749 493.505 161.384 493.46 161.353C493.359 161.316 493.268 161.26 493.189 161.187C493.111 161.115 493.048 161.027 493.003 160.93C492.958 160.833 492.933 160.728 492.929 160.622C492.925 160.515 492.942 160.408 492.979 160.308C493.016 160.208 493.073 160.116 493.145 160.038C493.218 159.959 493.305 159.896 493.402 159.852C493.499 159.807 493.604 159.782 493.711 159.778C493.817 159.774 493.924 159.791 494.024 159.828C494.298 159.934 500.627 162.467 502.808 167.96C502.849 168.056 502.871 168.159 502.871 168.264C502.871 168.368 502.85 168.472 502.808 168.567C502.767 168.663 502.706 168.75 502.63 168.821C502.554 168.892 502.464 168.947 502.366 168.983C502.281 169.047 502.181 169.089 502.076 169.105Z" fill="#229B9F"/>
<path d="M502.076 158.363C501.955 158.362 501.836 158.336 501.725 158.287C501.546 158.179 501.417 158.005 501.365 157.802C501.314 157.599 501.345 157.384 501.451 157.203L508.146 145.638C508.256 145.461 508.43 145.334 508.632 145.283C508.834 145.232 509.047 145.261 509.228 145.363C509.406 145.468 509.536 145.639 509.59 145.838C509.644 146.038 509.618 146.25 509.518 146.431L502.808 157.997C502.73 158.117 502.621 158.215 502.492 158.279C502.363 158.344 502.22 158.373 502.076 158.363Z" fill="#229B9F"/>
<path d="M507.825 160.133C507.715 160.154 507.601 160.154 507.49 160.133C507.395 160.087 507.311 160.023 507.241 159.945C507.171 159.866 507.118 159.775 507.084 159.675C507.05 159.576 507.036 159.471 507.043 159.366C507.05 159.261 507.077 159.159 507.124 159.065L512.278 148.598C512.369 148.412 512.531 148.269 512.727 148.202C512.922 148.135 513.137 148.148 513.323 148.239C513.509 148.33 513.651 148.491 513.719 148.687C513.786 148.883 513.772 149.098 513.681 149.284L508.542 159.767C508.465 159.885 508.358 159.981 508.233 160.045C508.107 160.11 507.966 160.14 507.825 160.133Z" fill="#229B9F"/>
<path d="M510.433 163.917C510.327 163.939 510.218 163.939 510.113 163.917C510.018 163.876 509.932 163.816 509.861 163.741C509.79 163.666 509.734 163.578 509.697 163.481C509.66 163.385 509.643 163.282 509.646 163.178C509.649 163.075 509.673 162.973 509.716 162.879L514.657 151.649C514.744 151.461 514.901 151.313 515.095 151.239C515.289 151.165 515.504 151.17 515.694 151.253C515.886 151.336 516.036 151.492 516.113 151.687C516.19 151.881 516.188 152.098 516.106 152.29L511.15 163.505C511.082 163.635 510.979 163.743 510.852 163.817C510.725 163.89 510.579 163.924 510.433 163.917Z" fill="#229B9F"/>
<path d="M297.573 194.983C297.419 194.98 297.269 194.935 297.139 194.851C297.01 194.767 296.906 194.649 296.841 194.51C292.693 184.927 299.494 180.472 299.555 180.426C299.732 180.317 299.944 180.282 300.147 180.327C300.349 180.373 300.525 180.496 300.638 180.67C300.695 180.756 300.734 180.853 300.753 180.954C300.772 181.055 300.771 181.159 300.75 181.26C300.729 181.361 300.688 181.456 300.629 181.541C300.571 181.626 300.496 181.698 300.409 181.754C300.15 181.922 294.691 185.584 298.29 193.869C298.371 194.061 298.374 194.278 298.297 194.472C298.22 194.667 298.069 194.823 297.878 194.906C297.783 194.955 297.679 194.981 297.573 194.983Z" fill="#229B9F"/>
<path d="M120.307 410.794C120.307 410.794 118.599 419.156 121.238 421.002C123.876 422.848 146.629 415.143 145.973 412.549C145.317 409.955 132.416 408.627 132.416 408.627C132.416 408.627 122.275 411.572 120.307 410.794Z" fill="#18969A"/>
<path d="M122.686 422.009C122.033 422.059 121.379 421.927 120.795 421.627C117.837 419.552 119.377 411.542 119.56 410.642C119.581 410.528 119.627 410.421 119.696 410.328C119.765 410.235 119.854 410.16 119.957 410.108C120.059 410.059 120.171 410.033 120.285 410.033C120.398 410.033 120.51 410.059 120.612 410.108C121.665 410.565 127.338 409.345 132.202 407.91C132.298 407.888 132.397 407.888 132.492 407.91C135.649 408.231 145.988 409.512 146.72 412.396C146.964 413.388 145.958 414.197 145.195 414.731C141.185 417.462 127.993 422.009 122.686 422.009ZM120.917 411.664C120.384 414.715 120.185 419.293 121.68 420.376C122.305 420.819 126.423 420.376 133.59 418.057C140.758 415.738 144.967 413.373 145.241 412.61C144.951 411.603 139.141 410.092 132.492 409.406C130.693 409.924 123.876 411.862 120.917 411.664Z" fill="#18969A"/>
<path d="M87.2911 410.794C87.2911 410.794 87.0166 420.468 88.0688 421.658C89.1211 422.848 112.469 420.346 111.371 417.187C110.273 414.029 100.833 410.794 100.833 410.794H87.2911Z" fill="#18969A"/>
<path d="M90.7833 422.696C89.6617 422.845 88.5209 422.659 87.5046 422.161C86.3761 420.895 86.4524 413.77 86.5286 410.764C86.5365 410.567 86.6203 410.38 86.7624 410.244C86.9046 410.107 87.094 410.031 87.2911 410.031H100.833H101.092C102.084 410.382 110.807 413.48 112.088 416.882C112.255 417.34 112.332 418.24 110.929 419.095C107.985 420.895 96.5631 422.696 90.7833 422.696ZM88.6026 421.078C90.4631 421.627 104.432 420.315 109.358 418.21C110.517 417.706 110.654 417.386 110.654 417.386C109.892 415.417 104.203 412.808 100.711 411.557H88.0383C87.9621 415.646 88.1451 420.163 88.6026 421.078Z" fill="#18969A"/>
<path d="M86.2383 378.874L87.2905 410.794C87.2905 410.794 97.2793 414.731 100.833 410.794L103.608 375.7L86.2383 378.874Z" fill="white"/>
<path d="M95.7238 413.296C92.7467 413.2 89.8053 412.618 87.016 411.572C86.8763 411.518 86.7555 411.424 86.6687 411.302C86.5819 411.18 86.533 411.035 86.528 410.885L85.3995 378.889C85.3966 378.704 85.4595 378.525 85.5768 378.382C85.6941 378.24 85.8583 378.144 86.04 378.111L103.471 374.953C103.584 374.936 103.7 374.943 103.811 374.975C103.921 375.007 104.024 375.061 104.111 375.136C104.2 375.212 104.268 375.309 104.311 375.418C104.354 375.527 104.369 375.645 104.355 375.761L101.595 410.855C101.583 411.023 101.519 411.183 101.412 411.313C100.655 412.023 99.7576 412.566 98.7779 412.907C97.7982 413.249 96.7578 413.382 95.7238 413.296ZM88.0988 410.245C90.9963 411.282 97.5538 412.945 100.162 410.443L102.83 376.616L87.016 379.53L88.0988 410.245Z" fill="#28A0A4"/>
<path d="M132.416 374.388V408.627C130.681 409.858 128.697 410.69 126.604 411.065C124.511 411.44 122.361 411.347 120.307 410.794L112.789 369.597L132.416 374.388Z" fill="white"/>
<path d="M124.089 412.06C122.744 412.06 121.406 411.88 120.109 411.526C119.97 411.49 119.844 411.415 119.747 411.31C119.649 411.204 119.584 411.073 119.56 410.931L112.041 369.734C112.021 369.61 112.031 369.482 112.071 369.363C112.111 369.243 112.179 369.135 112.27 369.048C112.362 368.96 112.475 368.897 112.597 368.865C112.72 368.833 112.849 368.833 112.972 368.865L132.675 373.656C132.841 373.691 132.99 373.784 133.096 373.917C133.202 374.051 133.258 374.218 133.254 374.388V408.627C133.252 408.74 133.227 408.851 133.18 408.954C133.133 409.056 133.064 409.148 132.98 409.222C130.385 411.075 127.276 412.067 124.089 412.06ZM120.963 410.168C122.781 410.583 124.664 410.625 126.498 410.292C128.333 409.959 130.081 409.258 131.638 408.231V374.953L113.734 370.619L120.963 410.168Z" fill="#28A0A4"/>
<path d="M81.054 289.858L78.6445 384.001C78.6445 384.001 116.495 394.682 140.971 378.874L123.525 299.074L81.054 289.858Z" fill="#18969A"/>
<path d="M106.399 388.227C96.9696 388.198 87.5783 387.025 78.4309 384.733C78.2672 384.691 78.123 384.593 78.023 384.457C77.9229 384.321 77.873 384.154 77.8819 383.985L80.2914 289.842C80.2908 289.73 80.3167 289.619 80.367 289.518C80.4174 289.417 80.4907 289.33 80.5811 289.263C80.6684 289.194 80.7694 289.145 80.8772 289.119C80.9851 289.092 81.0973 289.089 81.2064 289.11L123.723 298.265C123.866 298.295 123.997 298.365 124.1 298.468C124.203 298.571 124.273 298.702 124.303 298.845L141.718 378.645C141.752 378.798 141.738 378.958 141.678 379.102C141.618 379.247 141.515 379.37 141.383 379.454C130.876 386.289 117.867 388.227 106.399 388.227ZM79.4221 383.421C84.1954 384.641 117.837 392.499 140.117 378.508L122.915 299.714L81.7401 290.804L79.4221 383.421Z" fill="#18969A"/>
<path d="M126.896 272.25C126.896 272.25 133.407 248.661 136.564 246.418C139.721 244.175 145.851 241.413 145.851 244.572C145.851 247.73 141.276 273.028 134.2 272.235C127.124 271.441 126.896 272.25 126.896 272.25Z" fill="white"/>
<path d="M134.535 273.013H134.108C129 272.448 127.688 272.738 127.429 272.83C127.334 272.922 127.216 272.988 127.088 273.02C126.959 273.053 126.824 273.05 126.697 273.013C126.504 272.962 126.338 272.838 126.236 272.667C126.133 272.496 126.101 272.291 126.148 272.097V271.96C126.956 269.046 132.843 248.127 136.076 245.823C137.768 244.617 143.121 241.474 145.5 242.771C145.843 242.952 146.126 243.229 146.315 243.567C146.504 243.906 146.592 244.291 146.568 244.678C146.568 247.547 143.197 266.742 137.54 271.792C136.721 272.552 135.652 272.987 134.535 273.013ZM129.228 271.197C130.916 271.22 132.601 271.337 134.276 271.548C134.701 271.57 135.125 271.499 135.52 271.341C135.915 271.183 136.271 270.941 136.564 270.633C141.55 266.177 145.088 247.745 145.088 244.694C145.088 244.266 144.936 244.175 144.844 244.144C143.777 243.58 139.964 245.06 137.006 247.196C134.962 248.722 130.555 262.241 127.993 271.319C128.329 271.238 128.74 271.197 129.228 271.197Z" fill="#18969A"/>
<path d="M161.04 266.62C160.445 266.62 135.115 262.683 135.115 262.683L149.45 225.85L177.48 228.673L161.04 266.62Z" fill="white"/>
<path d="M161.04 267.444C160.445 267.444 140.895 264.392 134.916 263.492C134.803 263.476 134.695 263.435 134.6 263.371C134.505 263.308 134.426 263.224 134.367 263.126C134.322 263.02 134.299 262.905 134.299 262.79C134.299 262.675 134.322 262.56 134.367 262.454L148.733 225.56C148.791 225.402 148.901 225.269 149.046 225.183C149.19 225.097 149.36 225.063 149.526 225.087L177.556 227.91C177.675 227.925 177.789 227.968 177.889 228.034C177.99 228.1 178.074 228.188 178.135 228.291C178.191 228.397 178.22 228.515 178.22 228.635C178.22 228.754 178.191 228.872 178.135 228.978L161.757 266.986C161.694 267.124 161.593 267.24 161.466 267.321C161.339 267.403 161.191 267.445 161.04 267.444ZM136.091 262.134C145.241 263.538 157.837 265.491 160.567 265.857L176.32 229.329L149.892 226.659L136.091 262.134Z" fill="#18969A"/>
<path d="M76.6613 205.846C74.152 205.886 71.6771 206.436 69.3871 207.464C65.4068 209.127 61.5333 212.041 60.4353 216.176C59.5661 219.563 60.6793 223.149 62.1738 226.307C63.6683 229.466 65.5288 232.533 66.2913 235.951C67.0538 239.368 66.3828 243.397 63.6073 245.517C67.2866 244.325 70.7477 242.542 73.8553 240.238C75.6977 238.891 76.9618 236.896 77.3933 234.654C77.4803 232.796 77.1248 230.945 76.3563 229.252C75.2349 226.727 74.554 224.028 74.3433 221.272C74.2528 219.89 74.5399 218.51 75.1739 217.279C75.808 216.047 76.765 215.012 77.9423 214.284C80.0773 213.17 86.8788 213.643 86.0096 209.707C85.3996 206.731 79.0861 205.892 76.6613 205.846Z" fill="white"/>
<path d="M63.6082 246.28C63.4725 246.282 63.3388 246.248 63.2209 246.181C63.1029 246.114 63.005 246.017 62.9372 245.899C62.8497 245.736 62.8217 245.548 62.8579 245.367C62.8941 245.186 62.9922 245.024 63.1354 244.907C65.8804 242.817 66.1854 238.804 65.5449 236.103C64.8861 233.655 63.9283 231.298 62.6932 229.084C62.2814 228.276 61.8697 227.467 61.4732 226.643C59.4754 222.386 58.9264 219.014 59.7042 215.962C61.0462 210.79 66.1702 207.967 69.0982 206.808C71.4973 205.729 74.0931 205.158 76.7232 205.129C79.2547 205.129 86.0104 206.045 86.8187 209.707C86.9222 210.107 86.9432 210.525 86.8803 210.934C86.8173 211.344 86.6719 211.736 86.4527 212.087C85.4462 213.613 83.0519 214.04 80.9474 214.421C80.0604 214.529 79.1898 214.744 78.3549 215.062C77.3088 215.731 76.4612 216.669 75.9005 217.777C75.3399 218.886 75.0868 220.124 75.1677 221.364C75.3647 223.916 75.9885 226.418 77.0129 228.764L77.1349 229.084C77.95 230.893 78.3212 232.871 78.2177 234.852C77.7669 237.297 76.404 239.479 74.4052 240.955C71.2296 243.305 67.6974 245.128 63.9437 246.357C63.8279 246.354 63.7138 246.328 63.6082 246.28ZM76.4792 206.609C74.1337 206.665 71.8223 207.183 69.6777 208.135C67.0089 209.249 62.3577 211.797 61.1834 216.329C60.4972 218.984 61.0309 222.035 62.8609 225.957C63.2422 226.765 63.6387 227.574 64.0504 228.367C65.373 230.691 66.3977 233.172 67.1004 235.752C67.734 238.415 67.4212 241.215 66.2159 243.671C68.8167 242.699 71.2542 241.335 73.4444 239.628C75.0872 238.387 76.225 236.593 76.6469 234.577C76.7179 232.838 76.3728 231.106 75.6404 229.527L75.5184 229.191C74.4233 226.688 73.7681 224.014 73.5817 221.288C73.4981 219.772 73.8269 218.262 74.5332 216.918C75.2395 215.575 76.2968 214.448 77.5924 213.658C78.5688 213.258 79.5947 212.991 80.6424 212.865C82.3504 212.56 84.4854 212.163 85.1259 211.187C85.2397 211.013 85.3125 210.815 85.3389 210.609C85.3654 210.403 85.3447 210.194 85.2784 209.997C84.7447 207.586 79.1784 206.716 76.6622 206.67H76.4944L76.4792 206.609Z" fill="#18969A"/>
<path d="M79.6505 206.868C78.7505 208.255 78.3473 209.907 78.5067 211.553C78.5325 212.645 78.8771 213.706 79.498 214.604C79.909 215.136 80.4392 215.564 81.0459 215.853C81.6525 216.141 82.3185 216.284 82.9902 216.268C83.5888 216.294 84.1742 216.086 84.622 215.688C84.9615 215.322 85.1891 214.867 85.2777 214.375C86.1927 210.927 84.256 200.414 79.6505 206.868Z" fill="#18969A"/>
<path d="M82.8842 216.985C82.1188 216.991 81.3618 216.824 80.6699 216.497C79.978 216.169 79.3691 215.689 78.8887 215.093C78.1713 214.067 77.7733 212.851 77.745 211.599C77.5714 209.777 78.0291 207.951 79.0412 206.426C80.8712 203.832 82.3962 203.832 83.3265 204.275C85.919 205.48 86.7272 211.904 86.0257 214.528C85.8952 215.152 85.5943 215.728 85.1565 216.191C84.57 216.726 83.7988 217.01 83.0062 216.985H82.8842ZM82.3505 205.587C81.6185 205.587 80.8255 206.625 80.2612 207.311C79.4647 208.552 79.1101 210.025 79.2547 211.492C79.2668 212.443 79.5528 213.37 80.0782 214.162C80.4196 214.594 80.8596 214.937 81.3612 215.162C81.8628 215.388 82.4113 215.49 82.9605 215.459C83.3654 215.473 83.763 215.349 84.089 215.108C84.3142 214.824 84.466 214.488 84.5312 214.132C85.126 211.904 84.3177 206.503 82.6707 205.648C82.5693 205.606 82.4603 205.585 82.3505 205.587Z" fill="#18969A"/>
<path d="M100.772 230.443C100.105 231.092 99.2799 231.556 98.3786 231.788C97.4773 232.021 96.531 232.015 95.6329 231.77C93.5555 231.37 91.6107 230.458 89.9752 229.115C86.7648 226.589 84.322 223.218 82.9212 219.38C81.5203 215.542 81.217 211.389 82.0452 207.387C83.8447 199.285 92.4152 191.595 101.001 195.181C102.45 195.797 103.747 196.722 104.8 197.893C105.854 199.063 106.639 200.45 107.101 201.956C107.706 201.785 108.347 201.795 108.946 201.985C109.545 202.175 110.075 202.536 110.471 203.024C112.621 205.389 112.393 207.799 111.035 210.454C108.809 214.803 106.14 218.923 104.112 223.363C102.907 225.972 102.343 228.795 100.772 230.443Z" fill="white"/>
<path d="M97.097 232.655C96.5859 232.649 96.076 232.603 95.572 232.517C93.3674 232.104 91.3017 231.144 89.5635 229.725C86.2239 227.121 83.6826 223.63 82.2294 219.651C80.7761 215.672 80.4692 211.365 81.3438 207.219C81.9391 204.649 83.07 202.233 84.6625 200.129C86.255 198.026 88.2732 196.282 90.5853 195.013C92.2216 194.114 94.0397 193.596 95.904 193.498C97.7682 193.401 99.6305 193.725 101.352 194.448C102.782 195.061 104.072 195.959 105.145 197.087C106.217 198.215 107.049 199.55 107.589 201.009C108.234 200.971 108.879 201.082 109.474 201.334C110.069 201.585 110.598 201.97 111.02 202.459C113.842 205.587 112.759 208.684 111.707 210.759C110.776 212.56 109.77 214.33 108.794 216.054C107.406 218.511 105.973 221.043 104.783 223.683C104.402 224.522 104.082 225.392 103.777 226.231C103.292 227.962 102.462 229.576 101.337 230.976C100.787 231.538 100.126 231.978 99.3953 232.267C98.6649 232.556 97.8818 232.688 97.097 232.655ZM96.5633 195.043C94.7014 195.065 92.8716 195.53 91.2258 196.401C89.1158 197.562 87.2733 199.153 85.8178 201.072C84.3623 202.991 83.3264 205.194 82.7773 207.54C81.9909 211.4 82.287 215.403 83.6327 219.106C84.9784 222.808 87.3212 226.066 90.4023 228.52C91.9436 229.779 93.7717 230.639 95.7245 231.022C98.4085 231.434 99.5675 230.595 100.193 229.924C101.163 228.669 101.883 227.239 102.313 225.712C102.633 224.843 102.968 223.942 103.365 223.057C104.585 220.403 106.034 217.839 107.437 215.428C108.413 213.719 109.404 211.949 110.319 210.18C111.707 207.464 111.569 205.495 109.861 203.603C109.567 203.232 109.171 202.953 108.722 202.801C108.273 202.65 107.789 202.631 107.33 202.749C107.134 202.825 106.916 202.825 106.72 202.749C106.534 202.645 106.393 202.477 106.323 202.276C105.909 200.857 105.185 199.547 104.205 198.442C103.224 197.336 102.01 196.462 100.65 195.883C99.3571 195.334 97.9678 195.049 96.5633 195.043Z" fill="#18969A"/>
<path d="M108.275 211.95C108.275 211.95 113.338 216.741 112.85 218.053C112.362 219.365 109.587 219.228 109.587 219.228" fill="white"/>
<path d="M109.937 220.052H109.541C109.441 220.046 109.342 220.02 109.252 219.976C109.162 219.933 109.081 219.871 109.015 219.796C108.948 219.721 108.897 219.633 108.864 219.539C108.831 219.444 108.818 219.343 108.824 219.243C108.84 219.042 108.933 218.855 109.083 218.721C109.234 218.587 109.431 218.517 109.632 218.526C110.578 218.526 111.935 218.388 112.133 217.854C112.331 217.32 110.105 214.803 107.756 212.514C107.616 212.369 107.537 212.175 107.537 211.972C107.537 211.77 107.616 211.576 107.756 211.431C107.827 211.359 107.912 211.302 108.005 211.264C108.098 211.225 108.197 211.205 108.298 211.205C108.399 211.205 108.498 211.225 108.591 211.264C108.684 211.302 108.768 211.359 108.839 211.431C111.325 213.781 114.161 216.893 113.597 218.419C113.033 219.945 110.852 220.052 109.937 220.052Z" fill="#18969A"/>
<path d="M109.602 242.588C103.609 242.741 93.7418 236.195 93.6808 235.966C92.7951 232.041 92.1079 228.074 91.6221 224.08C93.0064 223.622 94.2395 222.794 95.1882 221.686C96.1369 220.578 96.7652 219.232 97.0053 217.793C98.2863 212.362 103.38 211.782 105.744 204.702C108.58 206.09 108.794 210.363 109.449 213.048C110.303 216.832 110.974 220.677 111.737 224.431C112.164 226.842 105.988 228.337 104.737 227.879C105.911 231.434 105.911 231.434 109.602 242.588Z" fill="white"/>
<path d="M109.419 243.351C103.685 243.351 93.2387 237.248 92.9489 236.164C92.0562 232.204 91.364 228.201 90.8749 224.171C90.8515 223.982 90.8996 223.792 91.0096 223.636C91.1197 223.481 91.2838 223.373 91.4697 223.332C91.6069 223.332 95.1144 222.417 96.2582 217.549C96.9348 215.15 98.3355 213.019 100.269 211.446C102.444 209.56 104.085 207.134 105.027 204.412C105.056 204.307 105.109 204.21 105.184 204.13C105.258 204.051 105.351 203.99 105.454 203.954C105.552 203.909 105.659 203.886 105.767 203.886C105.874 203.886 105.981 203.909 106.079 203.954C108.778 205.282 109.404 208.654 109.907 211.37C109.998 211.889 110.09 212.377 110.197 212.896C111.035 216.649 111.722 220.525 112.484 224.309C112.545 224.768 112.478 225.235 112.289 225.658C112.101 226.081 111.799 226.443 111.417 226.704C109.764 227.874 107.824 228.571 105.805 228.718C106.689 231.404 107.04 232.487 110.38 242.451C110.418 242.564 110.43 242.686 110.414 242.805C110.399 242.924 110.355 243.038 110.288 243.137C110.214 243.229 110.121 243.305 110.016 243.361C109.911 243.416 109.796 243.449 109.678 243.458L109.419 243.351ZM94.3672 235.554C95.6482 236.546 103.334 241.276 108.534 241.779C105.195 231.663 105.149 231.556 103.959 228.047C103.915 227.912 103.91 227.767 103.945 227.629C103.98 227.491 104.054 227.366 104.158 227.269C104.261 227.169 104.39 227.1 104.53 227.071C104.67 227.041 104.816 227.052 104.951 227.101C106.912 227.136 108.834 226.548 110.441 225.423C110.852 225.072 111.035 224.751 110.974 224.461C110.303 220.647 109.541 216.832 108.702 213.109C108.595 212.651 108.504 212.148 108.412 211.583C108.031 209.524 107.558 207.006 106.125 205.74C105.06 208.313 103.422 210.609 101.336 212.453C99.6142 213.838 98.358 215.718 97.7374 217.839C97.4825 219.306 96.8667 220.686 95.9455 221.856C95.0244 223.025 93.8269 223.947 92.4609 224.538C92.7202 226.491 93.5132 232.289 94.3672 235.554Z" fill="#18969A"/>
<path d="M110.989 221.577C110.682 221.909 110.306 222.169 109.888 222.342C109.47 222.515 109.02 222.595 108.568 222.577C108.117 222.56 107.674 222.445 107.271 222.241C106.868 222.037 106.513 221.748 106.231 221.394" fill="white"/>
<path d="M108.565 223.393H108.428C107.883 223.351 107.354 223.193 106.876 222.93C106.397 222.667 105.98 222.305 105.652 221.867C105.562 221.801 105.488 221.715 105.436 221.616C105.383 221.518 105.352 221.409 105.346 221.297C105.34 221.186 105.358 221.074 105.4 220.97C105.442 220.866 105.506 220.773 105.588 220.697C105.67 220.621 105.767 220.563 105.874 220.529C105.98 220.495 106.093 220.484 106.204 220.499C106.315 220.513 106.421 220.551 106.515 220.611C106.61 220.671 106.69 220.751 106.75 220.845C106.946 221.112 107.195 221.334 107.481 221.5C107.767 221.665 108.084 221.77 108.412 221.806C109.153 221.777 109.858 221.479 110.395 220.967C110.537 220.827 110.729 220.749 110.929 220.749C111.128 220.749 111.32 220.827 111.462 220.967C111.534 221.038 111.591 221.123 111.629 221.216C111.668 221.308 111.688 221.408 111.688 221.509C111.688 221.61 111.668 221.709 111.629 221.802C111.591 221.895 111.534 221.98 111.462 222.051C110.683 222.823 109.658 223.298 108.565 223.393Z" fill="#18969A"/>
<path d="M104.737 227.818C103.827 227.974 102.895 227.942 101.998 227.724C101.102 227.506 100.259 227.107 99.5215 226.552C99.5215 226.552 101.046 232.274 106.369 232.792L104.737 227.818Z" fill="#18969A"/>
<path d="M106.369 233.555C100.62 232.991 98.9268 227.009 98.8658 226.75C98.8214 226.59 98.8302 226.421 98.8907 226.267C98.9512 226.112 99.0602 225.982 99.2013 225.895C99.3437 225.811 99.5092 225.775 99.6737 225.791C99.8383 225.808 99.9933 225.876 100.116 225.987C100.769 226.461 101.51 226.801 102.295 226.987C103.081 227.173 103.895 227.202 104.691 227.07C104.87 227.039 105.055 227.072 105.211 227.164C105.368 227.257 105.486 227.402 105.545 227.574L107.177 232.563C107.221 232.683 107.233 232.812 107.211 232.938C107.19 233.064 107.136 233.182 107.055 233.28C106.971 233.377 106.864 233.453 106.745 233.501C106.626 233.549 106.497 233.567 106.369 233.555ZM101.108 228.306C101.97 229.965 103.448 231.22 105.225 231.8L104.188 228.642C103.149 228.717 102.106 228.603 101.108 228.306Z" fill="#18969A"/>
<path d="M106.807 211.788C107.106 211.74 107.251 211.088 107.13 210.33C107.009 209.573 106.668 208.998 106.368 209.046C106.069 209.094 105.924 209.747 106.045 210.504C106.167 211.261 106.507 211.836 106.807 211.788Z" fill="#18969A"/>
<path d="M101.062 215.657C100.731 214.742 100.156 213.934 99.3993 213.323C98.8891 212.773 98.2976 212.305 97.6456 211.934C97.3162 211.748 96.9496 211.638 96.5724 211.612C96.1952 211.586 95.8168 211.644 95.4648 211.782C95.1674 211.936 94.9062 212.152 94.6985 212.415C94.4907 212.678 94.3413 212.982 94.2601 213.307C94.1073 213.96 94.1073 214.639 94.2601 215.291C94.5251 216.724 95.164 218.062 96.112 219.169C97.06 220.275 98.2835 221.111 99.6586 221.593L99.3993 221.41" fill="white"/>
<path d="M99.5978 222.371C99.5275 222.387 99.4546 222.387 99.3843 222.371C97.8861 221.834 96.5537 220.916 95.5187 219.706C94.4837 218.497 93.7819 217.038 93.4825 215.474C93.304 214.716 93.304 213.928 93.4825 213.17C93.5904 212.739 93.7909 212.337 94.0701 211.992C94.3493 211.647 94.7005 211.367 95.099 211.171C95.5522 210.979 96.0434 210.893 96.5349 210.919C97.0265 210.946 97.5055 211.084 97.9355 211.324C98.6592 211.731 99.3173 212.246 99.8875 212.85C100.742 213.563 101.386 214.497 101.748 215.55C101.773 215.648 101.779 215.749 101.765 215.848C101.751 215.948 101.718 216.043 101.667 216.13C101.616 216.216 101.548 216.292 101.468 216.352C101.388 216.412 101.296 216.456 101.199 216.481C101.001 216.527 100.793 216.494 100.619 216.389C100.445 216.283 100.319 216.114 100.269 215.917C99.9578 215.129 99.4288 214.446 98.7438 213.948C98.2998 213.454 97.7861 213.027 97.2188 212.682C96.9903 212.548 96.7352 212.467 96.4716 212.443C96.208 212.419 95.9424 212.454 95.6938 212.545C95.4985 212.655 95.3275 212.804 95.1912 212.982C95.0549 213.16 94.9561 213.365 94.9008 213.582C94.7844 214.12 94.7844 214.677 94.9008 215.215C95.1324 216.41 95.6464 217.532 96.3998 218.487C97.1533 219.443 98.1243 220.204 99.2318 220.708C99.4051 220.699 99.5765 220.747 99.7198 220.845L99.9028 220.967C100.057 221.075 100.17 221.231 100.222 221.412C100.275 221.592 100.265 221.785 100.193 221.959C100.135 222.071 100.051 222.168 99.9471 222.24C99.8433 222.312 99.7233 222.357 99.5978 222.371Z" fill="#18969A"/>
<path d="M112.85 237.461C112.85 237.461 92.4002 229.191 85.9799 236.408C79.5597 243.625 75.0457 271.578 77.7754 307.817C100.498 315.079 127.719 299.516 127.719 299.516C127.719 299.516 122.748 241.917 112.85 237.461Z" fill="#28A0A4"/>
<path d="M155.688 261.127C155.688 261.127 162.032 247.135 163.221 248.523C164.411 249.912 162.23 256.412 162.23 256.412C162.23 256.412 168.543 247.73 169.931 248.417C171.319 249.103 170.328 256.046 167.156 261.127C163.984 266.208 160.064 272.235 160.064 272.235L155.688 261.127Z" fill="white"/>
<path d="M160.125 272.997H160.034C159.896 272.984 159.765 272.933 159.654 272.85C159.544 272.766 159.459 272.654 159.409 272.524L155.047 261.417C155.006 261.325 154.984 261.227 154.984 261.127C154.984 261.027 155.006 260.928 155.047 260.837C157.701 254.962 161.147 247.928 162.901 247.684C163.075 247.659 163.253 247.678 163.418 247.739C163.583 247.8 163.731 247.902 163.846 248.035C164.578 248.905 164.426 250.934 164.029 252.841C168.726 246.967 169.885 247.547 170.312 247.76C170.529 247.882 170.716 248.049 170.864 248.249C171.011 248.448 171.114 248.677 171.166 248.92C171.837 251.239 170.556 257.129 167.857 261.539C164.731 266.665 160.781 272.616 160.735 272.677C160.664 272.773 160.572 272.852 160.467 272.907C160.361 272.963 160.244 272.993 160.125 272.997ZM156.587 261.157L160.293 270.587C161.605 268.573 164.304 264.483 166.576 260.73C169.458 256.015 170.221 250.293 169.626 249.195C168.543 249.683 165.341 253.437 162.84 256.824C162.733 256.97 162.577 257.073 162.401 257.115C162.225 257.157 162.04 257.135 161.879 257.053C161.719 256.968 161.593 256.831 161.524 256.664C161.454 256.497 161.445 256.31 161.498 256.137C162.3 253.992 162.738 251.728 162.794 249.439C160.347 253.142 158.248 257.065 156.526 261.157H156.587Z" fill="#18969A"/>
<path d="M104.173 248.386C104.173 248.386 117.806 288.683 132.019 287.493C146.232 286.303 163.175 271.563 163.175 271.563L154.986 259.189C154.986 259.189 134.2 272.235 130.052 267.215C124.681 259.811 120.341 251.711 117.151 243.137C114.375 235.554 102.175 235.493 104.173 248.386Z" fill="#28A0A4"/>
<path d="M134.002 255.145C134.957 253.12 136.223 251.256 137.753 249.622C139.721 247.852 145.653 244.419 144.86 247.516C144.067 250.614 139.461 253.619 139.461 253.619C139.461 253.619 138.44 255.588 136.61 258.365" fill="white"/>
<path d="M136.609 259.082C136.461 259.081 136.317 259.033 136.198 258.945C136.113 258.891 136.041 258.82 135.984 258.738C135.927 258.655 135.888 258.562 135.868 258.464C135.848 258.365 135.848 258.264 135.868 258.166C135.888 258.068 135.927 257.975 135.984 257.892C137.753 255.191 138.775 253.238 138.79 253.223C138.851 253.106 138.94 253.007 139.049 252.933C139.049 252.933 143.411 250.095 144.112 247.318C144.143 247.198 144.143 247.072 144.112 246.952C143.472 246.753 139.964 248.615 138.211 250.187C136.758 251.759 135.555 253.545 134.642 255.481C134.604 255.579 134.546 255.667 134.472 255.741C134.398 255.816 134.309 255.874 134.212 255.912C134.115 255.95 134.01 255.968 133.906 255.965C133.801 255.961 133.698 255.936 133.604 255.891C133.509 255.845 133.425 255.781 133.356 255.702C133.288 255.623 133.236 255.531 133.205 255.431C133.174 255.331 133.163 255.225 133.174 255.121C133.185 255.017 133.218 254.916 133.27 254.825C134.28 252.702 135.624 250.755 137.25 249.057C138.378 248.035 143.197 244.617 145.027 245.731C145.378 245.945 145.912 246.479 145.592 247.699C144.829 250.751 140.925 253.513 140.041 254.108C139.751 254.642 138.79 256.412 137.25 258.685C137.185 258.8 137.093 258.897 136.981 258.966C136.869 259.036 136.741 259.076 136.609 259.082Z" fill="#18969A"/>
<path d="M132.278 287.31C129.277 287.315 126.332 286.491 123.769 284.929C114.878 279.589 102.617 252.063 102.099 250.888C102.05 250.796 102.021 250.695 102.013 250.591C102.005 250.487 102.018 250.383 102.052 250.285C102.086 250.186 102.14 250.096 102.21 250.019C102.28 249.942 102.365 249.88 102.46 249.837C102.555 249.794 102.658 249.771 102.762 249.77C102.866 249.768 102.969 249.788 103.065 249.828C103.161 249.868 103.248 249.927 103.321 250.002C103.393 250.077 103.45 250.165 103.486 250.263C103.608 250.553 116.083 278.521 124.562 283.617C133.041 288.713 143.136 283.754 152.622 277.514C152.705 277.457 152.798 277.418 152.896 277.398C152.994 277.378 153.095 277.378 153.193 277.398C153.291 277.418 153.385 277.457 153.467 277.514C153.55 277.57 153.62 277.643 153.674 277.727C153.785 277.896 153.824 278.101 153.784 278.298C153.744 278.495 153.628 278.668 153.461 278.78C146.781 283.236 139.37 287.31 132.278 287.31Z" fill="#18969A"/>
<path d="M562.618 356.506H47.3818C47.2161 356.458 47.0703 356.358 46.9666 356.22C46.8628 356.083 46.8066 355.915 46.8066 355.743C46.8066 355.57 46.8628 355.402 46.9666 355.265C47.0703 355.127 47.2161 355.027 47.3818 354.98H562.618C562.784 355.027 562.93 355.127 563.034 355.265C563.137 355.402 563.193 355.57 563.193 355.743C563.193 355.915 563.137 356.083 563.034 356.22C562.93 356.358 562.784 356.458 562.618 356.506Z" fill="#28A0A4"/>
<path d="M178.425 412.03V423.779C178.425 423.779 205.311 421.429 204.701 420.224C204.091 419.018 190.61 413.907 190.61 413.907L178.425 412.03Z" fill="#229B9F"/>
<path d="M178.425 424.465C178.234 424.46 178.051 424.39 177.906 424.267C177.83 424.194 177.769 424.106 177.727 424.009C177.685 423.912 177.663 423.808 177.662 423.703V412.03C177.663 411.921 177.687 411.813 177.731 411.713C177.776 411.613 177.841 411.524 177.921 411.45C178.006 411.382 178.104 411.332 178.209 411.303C178.314 411.274 178.424 411.267 178.531 411.282L190.731 413.083C190.781 413.069 190.834 413.069 190.884 413.083C197.182 415.463 204.792 418.561 205.402 419.766C205.459 419.893 205.488 420.031 205.488 420.17C205.488 420.31 205.459 420.447 205.402 420.575C205.158 421.002 204.517 422.1 178.516 424.42L178.425 424.465ZM179.187 412.915V422.863C189.191 421.978 199.973 420.773 203.267 419.995C201.208 418.881 195.642 416.546 190.411 414.578L179.187 412.915Z" fill="#28A0A4"/>
<path d="M178.349 401.746V412.03L190.533 413.83L190.976 401.746H178.349Z" fill="white"/>
<path d="M190.533 414.624H190.411L178.211 412.808C178.03 412.786 177.862 412.697 177.741 412.559C177.62 412.421 177.554 412.244 177.556 412.061V401.777C177.556 401.574 177.636 401.38 177.779 401.237C177.922 401.094 178.116 401.014 178.318 401.014H190.945C191.048 401.014 191.15 401.034 191.244 401.075C191.339 401.115 191.424 401.174 191.495 401.248C191.567 401.322 191.622 401.41 191.659 401.506C191.695 401.602 191.712 401.704 191.708 401.807L191.265 413.892C191.26 413.999 191.232 414.105 191.185 414.202C191.138 414.299 191.072 414.385 190.991 414.456C190.859 414.557 190.699 414.615 190.533 414.624ZM179.111 411.404L189.786 412.93L190.167 402.478H179.096L179.111 411.404Z" fill="#229B9F"/>
<path d="M214.323 402.097L215.68 415.814L227.941 415.371L227.301 402.097H214.323Z" fill="white"/>
<path d="M215.681 416.577C215.491 416.578 215.308 416.508 215.167 416.381C215.026 416.254 214.938 416.079 214.919 415.89L213.561 402.158C213.552 402.051 213.565 401.942 213.599 401.84C213.633 401.738 213.688 401.643 213.76 401.563C213.832 401.486 213.92 401.425 214.017 401.383C214.114 401.341 214.218 401.319 214.324 401.319H227.302C227.499 401.319 227.688 401.395 227.83 401.531C227.973 401.668 228.056 401.854 228.064 402.051L228.705 415.311C228.709 415.512 228.639 415.708 228.506 415.86C228.439 415.935 228.357 415.996 228.265 416.038C228.173 416.08 228.074 416.102 227.973 416.104L215.773 416.562L215.681 416.577ZM215.163 402.845L216.367 415.051L227.225 414.624L226.646 402.86L215.163 402.845Z" fill="#229B9F"/>
<path d="M225.929 291.948L228.506 404.386H212.509L205.509 326.477L192.242 405.652L176.9 404.813L180.057 301.82L225.929 291.948Z" fill="#18969A"/>
<path d="M192.242 406.415L176.9 405.576C176.802 405.572 176.705 405.548 176.616 405.507C176.527 405.466 176.447 405.408 176.38 405.335C176.314 405.263 176.262 405.178 176.228 405.086C176.194 404.994 176.179 404.896 176.183 404.797L179.34 301.79C179.346 301.621 179.408 301.459 179.515 301.33C179.623 301.2 179.77 301.109 179.935 301.072L225.7 291.2C225.812 291.179 225.926 291.182 226.037 291.209C226.147 291.235 226.25 291.284 226.341 291.353C226.431 291.42 226.504 291.508 226.555 291.608C226.605 291.709 226.631 291.82 226.63 291.933L229.208 404.37C229.206 404.573 229.13 404.769 228.994 404.92C228.845 405.06 228.65 405.142 228.445 405.148H212.524C212.332 405.149 212.147 405.077 212.005 404.947C211.864 404.817 211.777 404.638 211.762 404.447L205.28 332.458L192.989 405.789C192.96 405.966 192.868 406.126 192.731 406.241C192.594 406.355 192.42 406.417 192.242 406.415ZM177.678 404.096L191.601 404.858L204.762 326.355C204.791 326.177 204.881 326.015 205.018 325.898C205.155 325.781 205.329 325.716 205.509 325.714C205.695 325.724 205.871 325.801 206.005 325.93C206.139 326.058 206.223 326.231 206.241 326.416L213.18 403.623H227.698L225.151 292.894L180.774 302.446L177.678 404.096Z" fill="#28A0A4"/>
<path d="M251.777 252.765C254.482 250.844 257.486 249.385 260.668 248.447C263.596 247.593 266.905 244.572 267.271 241.337C267.294 240.819 267.222 240.302 267.058 239.811C266.575 238.217 265.855 236.705 264.923 235.325C264.833 235.174 264.707 235.049 264.556 234.959C264.236 234.822 263.885 235.05 263.626 235.249L258.899 238.926C258.931 237.905 258.865 236.883 258.7 235.874C258.685 235.517 258.545 235.177 258.304 234.913C258.116 234.783 257.892 234.714 257.663 234.714C257.435 234.714 257.211 234.783 257.023 234.913C256.646 235.168 256.329 235.501 256.093 235.89C254.293 238.438 253.043 241.749 251.136 244.114C250.755 244.572 246.973 247.516 247.232 247.791L251.777 252.765Z" fill="white"/>
<path d="M251.777 253.528C251.67 253.527 251.565 253.503 251.468 253.458C251.37 253.414 251.284 253.349 251.213 253.269L246.638 248.172C246.51 248.007 246.446 247.801 246.455 247.593C246.455 247.059 246.897 246.647 249.352 244.541C249.84 244.129 250.435 243.626 250.557 243.488C251.611 242.115 252.52 240.638 253.272 239.079C253.925 237.783 254.659 236.53 255.468 235.325C255.766 234.846 256.167 234.44 256.642 234.135C256.971 233.928 257.356 233.829 257.744 233.851C258.132 233.873 258.504 234.015 258.808 234.257C259.179 234.643 259.409 235.143 259.463 235.676C259.539 236.21 259.616 236.775 259.646 237.324L263.154 234.593C263.376 234.378 263.652 234.228 263.953 234.158C264.254 234.088 264.568 234.102 264.862 234.196C265.147 234.339 265.386 234.562 265.548 234.837C266.538 236.273 267.29 237.86 267.774 239.536C267.985 240.133 268.073 240.766 268.034 241.398C267.622 245.014 264.008 248.249 260.882 249.164C257.794 250.085 254.875 251.497 252.235 253.345C252.108 253.457 251.946 253.522 251.777 253.528ZM248.193 247.608L251.899 251.743C254.529 249.972 257.414 248.614 260.454 247.715C263.123 246.937 266.188 244.144 266.554 241.245C266.576 240.815 266.513 240.385 266.372 239.979C265.917 238.457 265.227 237.016 264.328 235.707L264.145 235.844L259.433 239.506C259.312 239.583 259.172 239.625 259.029 239.625C258.885 239.625 258.745 239.583 258.624 239.506C258.494 239.442 258.384 239.342 258.308 239.217C258.233 239.093 258.194 238.95 258.197 238.804C258.228 237.829 258.167 236.853 258.015 235.89C257.998 235.706 257.941 235.529 257.847 235.371C257.787 235.343 257.722 235.329 257.656 235.329C257.59 235.329 257.525 235.343 257.465 235.371C257.189 235.578 256.956 235.837 256.779 236.134C256.005 237.282 255.307 238.48 254.69 239.719C253.877 241.374 252.901 242.943 251.777 244.404C251.34 244.838 250.876 245.246 250.389 245.624C249.718 246.235 248.697 247.104 248.193 247.608Z" fill="#18969A"/>
<path d="M208.651 224.858C208.651 224.858 227.927 252.155 230.489 252.17C233.051 252.185 250.009 242.771 250.009 242.771L253.059 253.879C253.059 253.879 236.375 270.51 227.942 268.145C219.509 265.78 192.699 249.164 192.699 249.164L208.651 224.858Z" fill="#229B9F"/>
<path d="M194.193 216.268C192.897 216.436 191.586 216.436 190.061 216.558C188.536 216.68 186.782 216.466 186.507 215.032C186.233 213.598 187.529 212.621 187.011 211.522C186.849 211.228 186.632 210.969 186.37 210.759C183.933 208.416 182.468 205.24 182.268 201.864C182.12 198.525 183.243 195.253 185.409 192.709C185.043 192.907 184.571 192.587 184.449 192.19C184.376 191.772 184.463 191.342 184.693 190.985C185.52 189.66 186.711 188.6 188.124 187.933C192.559 185.678 197.573 184.822 202.505 185.477C206.287 185.919 211.106 188.055 211.411 192.511C211.497 193.306 211.306 194.107 210.87 194.777C210.433 195.447 209.778 195.946 209.016 196.188C209.016 201.01 207.186 204.626 204.731 208.532C203.093 211.207 200.812 213.431 198.097 215.001C196.893 215.678 195.566 216.109 194.193 216.268Z" fill="white"/>
<path d="M189.39 217.366C187.376 217.366 186.034 216.588 185.76 215.23C185.67 214.545 185.77 213.848 186.05 213.216C186.278 212.621 186.4 212.224 186.278 211.949C186.164 211.764 186.02 211.599 185.851 211.461C183.244 208.985 181.679 205.607 181.475 202.016C181.31 198.844 182.236 195.71 184.098 193.136C183.899 192.941 183.753 192.7 183.671 192.434C183.541 191.827 183.65 191.193 183.976 190.664C184.88 189.217 186.183 188.062 187.727 187.338C192.301 185.02 197.466 184.133 202.55 184.79C207.125 185.324 211.822 187.933 212.127 192.541C212.204 193.414 212.017 194.289 211.59 195.054C211.163 195.819 210.516 196.437 209.733 196.829C209.611 201.788 207.491 205.572 205.326 209.035C203.623 211.816 201.254 214.129 198.433 215.764C197.136 216.485 195.712 216.946 194.239 217.122C193.461 217.214 192.714 217.259 191.86 217.29C191.296 217.29 190.701 217.29 190.076 217.412L189.39 217.366ZM185.409 191.931C185.524 191.93 185.637 191.956 185.74 192.006C185.844 192.057 185.934 192.13 186.004 192.221C186.121 192.356 186.185 192.53 186.185 192.709C186.185 192.888 186.121 193.061 186.004 193.197C183.938 195.61 182.88 198.726 183.047 201.899C183.215 205.072 184.596 208.058 186.904 210.241C187.233 210.518 187.507 210.854 187.712 211.232C187.856 211.631 187.916 212.055 187.887 212.478C187.858 212.901 187.741 213.314 187.544 213.689C187.358 214.079 187.264 214.507 187.27 214.94C187.438 215.734 188.795 215.917 190.015 215.81L191.845 215.703C192.638 215.703 193.37 215.703 194.102 215.52C195.384 215.382 196.625 214.982 197.746 214.345C200.349 212.847 202.531 210.717 204.091 208.15C206.759 203.893 208.3 200.521 208.269 196.218C208.265 196.044 208.323 195.874 208.431 195.737C208.54 195.6 208.693 195.506 208.864 195.471C209.448 195.264 209.945 194.864 210.272 194.337C210.599 193.81 210.737 193.187 210.663 192.572C210.374 188.315 205.356 186.59 202.428 186.255C197.655 185.617 192.8 186.441 188.505 188.62C187.246 189.209 186.186 190.153 185.455 191.336C185.257 191.702 185.257 191.885 185.287 191.961L185.409 191.931Z" fill="#229B9F"/>
<path d="M211.472 202.795C211.472 202.795 215.772 207.723 215.193 208.898C214.613 210.073 212.066 209.691 212.066 209.691" fill="white"/>
<path d="M213.027 210.576C212.665 210.576 212.303 210.55 211.944 210.5C211.746 210.463 211.569 210.35 211.452 210.184C211.336 210.019 211.288 209.815 211.319 209.615C211.353 209.418 211.463 209.241 211.626 209.124C211.788 209.007 211.99 208.959 212.188 208.99C212.997 209.112 214.293 209.066 214.506 208.623C213.625 206.649 212.402 204.846 210.892 203.298C210.759 203.145 210.692 202.944 210.706 202.741C210.72 202.538 210.815 202.349 210.968 202.215C211.122 202.081 211.322 202.014 211.526 202.029C211.729 202.043 211.918 202.137 212.051 202.291C214.156 204.717 216.535 207.891 215.879 209.28C215.565 209.734 215.134 210.094 214.632 210.322C214.13 210.551 213.575 210.639 213.027 210.576Z" fill="#229B9F"/>
<path d="M209.718 195.761C212.234 197.286 212.128 201.33 212.463 203.878C212.941 207.459 213.327 211.054 213.622 214.665C213.82 216.954 207.98 217.717 206.866 217.244L209.017 226.094L196.085 222.966L195.551 215.489C196.898 215.191 198.136 214.525 199.129 213.567C200.122 212.608 200.831 211.394 201.178 210.058C202.825 205.129 201.178 195.105 201.178 195.105C201.178 195.105 207.278 194.25 209.718 195.761Z" fill="white"/>
<path d="M209.017 226.857H208.925L195.978 223.729C195.821 223.69 195.68 223.603 195.576 223.48C195.472 223.357 195.41 223.203 195.398 223.042L194.88 215.55C194.866 215.358 194.927 215.167 195.048 215.017C195.17 214.867 195.344 214.768 195.536 214.742C196.741 214.464 197.846 213.858 198.729 212.991C199.611 212.124 200.237 211.029 200.538 209.829C202.063 205.129 200.431 195.349 200.416 195.242C200.384 195.038 200.433 194.83 200.553 194.662C200.681 194.498 200.866 194.389 201.071 194.357C201.727 194.265 207.583 193.518 210.221 195.135C212.86 196.752 212.936 199.85 213.165 202.428C213.165 202.917 213.256 203.374 213.317 203.802C213.775 207.372 214.171 211.019 214.476 214.62C214.498 215.06 214.397 215.497 214.184 215.882C213.971 216.268 213.655 216.586 213.271 216.802C211.654 217.718 209.823 218.191 207.964 218.175L209.855 225.926C209.883 226.039 209.885 226.157 209.86 226.271C209.836 226.384 209.785 226.491 209.713 226.582C209.641 226.673 209.549 226.747 209.444 226.797C209.339 226.847 209.224 226.873 209.108 226.872L209.017 226.857ZM196.817 222.356L207.995 225.056L206.134 217.427C206.102 217.288 206.109 217.143 206.155 217.009C206.201 216.874 206.283 216.755 206.394 216.664C206.505 216.572 206.641 216.515 206.784 216.499C206.928 216.483 207.073 216.508 207.202 216.573C208.981 216.773 210.779 216.411 212.341 215.535C212.722 215.276 212.905 215.001 212.89 214.757C212.585 211.171 212.189 207.555 211.716 204C211.716 203.557 211.624 203.069 211.579 202.566C211.365 200.323 211.106 197.53 209.337 196.462C207.812 195.486 204.015 195.608 201.986 195.822C202.368 198.324 203.344 206.06 201.91 210.347C201.537 211.694 200.836 212.927 199.87 213.936C198.904 214.945 197.703 215.699 196.374 216.13L196.817 222.356Z" fill="#229B9F"/>
<path d="M213.165 212.011C212.851 212.291 212.48 212.499 212.078 212.622C211.676 212.744 211.252 212.777 210.835 212.719C210.419 212.661 210.02 212.513 209.666 212.285C209.313 212.058 209.013 211.756 208.788 211.4" fill="white"/>
<path d="M211.09 213.536C210.943 213.552 210.795 213.552 210.648 213.536C210.139 213.454 209.653 213.262 209.225 212.975C208.796 212.688 208.433 212.313 208.162 211.873C208.104 211.791 208.062 211.698 208.04 211.6C208.017 211.502 208.014 211.4 208.031 211.301C208.048 211.202 208.085 211.107 208.139 211.022C208.193 210.937 208.263 210.863 208.345 210.805C208.514 210.692 208.72 210.65 208.92 210.687C209.119 210.724 209.296 210.838 209.413 211.004C209.568 211.264 209.775 211.49 210.022 211.666C210.269 211.842 210.55 211.964 210.846 212.026C211.512 212.069 212.17 211.862 212.692 211.446C212.85 211.321 213.051 211.264 213.251 211.287C213.451 211.31 213.633 211.411 213.759 211.568C213.886 211.724 213.945 211.924 213.925 212.124C213.905 212.324 213.807 212.508 213.652 212.636C212.909 213.189 212.016 213.503 211.09 213.536Z" fill="#229B9F"/>
<path d="M204.96 205.999C204.735 205.115 204.277 204.309 203.633 203.664C203.204 203.082 202.69 202.568 202.108 202.139C201.821 201.937 201.493 201.802 201.147 201.744C200.801 201.686 200.447 201.706 200.11 201.803C199.821 201.917 199.56 202.092 199.345 202.316C199.129 202.54 198.964 202.807 198.86 203.1C198.664 203.689 198.597 204.313 198.661 204.931C198.79 206.29 199.272 207.592 200.058 208.708C200.845 209.824 201.909 210.715 203.145 211.293L202.916 211.11" fill="white"/>
<path d="M203.145 212.133C203.04 212.154 202.931 212.154 202.825 212.133C201.466 211.501 200.296 210.523 199.434 209.296C198.572 208.07 198.048 206.638 197.915 205.144C197.82 204.413 197.904 203.67 198.159 202.978C198.298 202.583 198.522 202.222 198.814 201.922C199.106 201.622 199.46 201.388 199.851 201.238C200.298 201.097 200.771 201.061 201.234 201.133C201.697 201.204 202.137 201.381 202.52 201.65C203.157 202.071 203.728 202.585 204.213 203.176C204.96 203.919 205.488 204.853 205.738 205.877C205.753 205.976 205.748 206.077 205.724 206.175C205.7 206.272 205.657 206.364 205.598 206.445C205.538 206.525 205.464 206.594 205.378 206.645C205.292 206.697 205.196 206.732 205.097 206.746C204.999 206.764 204.898 206.761 204.801 206.739C204.704 206.717 204.612 206.675 204.531 206.617C204.45 206.559 204.381 206.485 204.329 206.4C204.277 206.314 204.243 206.22 204.228 206.121C204.02 205.376 203.614 204.701 203.054 204.168C202.677 203.664 202.224 203.221 201.712 202.856C201.521 202.716 201.302 202.62 201.07 202.575C200.838 202.531 200.599 202.538 200.37 202.596C200.009 202.768 199.729 203.075 199.592 203.451C199.427 203.941 199.375 204.463 199.44 204.976C199.552 206.105 199.932 207.191 200.547 208.143C201.162 209.096 201.995 209.888 202.978 210.454C203.139 210.46 203.295 210.519 203.42 210.622L203.649 210.805C203.787 210.926 203.878 211.092 203.906 211.273C203.934 211.455 203.897 211.64 203.801 211.797C203.73 211.905 203.632 211.992 203.517 212.051C203.402 212.11 203.274 212.138 203.145 212.133Z" fill="#229B9F"/>
<path d="M210.292 201.406C210.565 201.353 210.675 200.74 210.537 200.037C210.4 199.334 210.067 198.807 209.795 198.86C209.522 198.914 209.412 199.527 209.549 200.23C209.687 200.933 210.019 201.459 210.292 201.406Z" fill="#229B9F"/>
<path d="M193.919 225.514L194.407 221.41L210.236 220.265L212.768 225.911C206.596 227.736 200.009 227.598 193.919 225.514Z" fill="#28A0A4"/>
<path d="M204.136 227.94C200.58 227.94 197.047 227.363 193.675 226.231C193.507 226.179 193.363 226.069 193.269 225.921C193.174 225.773 193.134 225.597 193.156 225.423L193.66 221.318C193.68 221.142 193.762 220.979 193.89 220.856C194.018 220.734 194.185 220.66 194.361 220.647L210.191 219.502C210.345 219.491 210.5 219.528 210.633 219.607C210.767 219.686 210.873 219.804 210.938 219.945L213.454 225.59C213.495 225.687 213.516 225.791 213.516 225.896C213.516 226 213.495 226.104 213.454 226.201C213.369 226.396 213.21 226.549 213.012 226.628C210.142 227.537 207.146 227.98 204.136 227.94ZM194.742 224.98C200.25 226.699 206.126 226.853 211.716 225.423L209.764 221.059L195.093 222.127L194.742 224.98Z" fill="#229B9F"/>
<path d="M212.768 225.911C203.374 223.408 194.132 218.282 182.268 232.869C170.403 247.455 177.845 305.406 177.845 305.406C180.715 307.72 184.097 309.313 187.708 310.051C191.319 310.789 195.054 310.651 198.601 309.648L228.887 302.019C228.887 302.019 221.521 228.245 212.768 225.911Z" fill="#28A0A4"/>
<path d="M215.681 415.814V425.93C215.681 425.93 242.033 423.062 241.606 421.063C241.179 419.064 227.881 415.356 227.881 415.356L215.681 415.814Z" fill="#229B9F"/>
<path d="M215.68 426.693C215.49 426.69 215.306 426.62 215.162 426.495C215.086 426.421 215.025 426.334 214.983 426.237C214.941 426.14 214.919 426.036 214.918 425.93V415.814C214.918 415.617 214.994 415.427 215.13 415.285C215.267 415.143 215.453 415.059 215.65 415.051L227.85 414.593H228.079C233.248 416.043 241.971 418.774 242.368 420.895C242.39 421.039 242.382 421.187 242.345 421.329C242.309 421.47 242.244 421.603 242.154 421.719C240.629 423.794 221.521 426.022 215.696 426.647L215.68 426.693ZM216.443 416.562V425.076C227.24 423.87 238.677 422.024 240.751 421.002C239.577 419.888 233.386 417.675 227.85 416.134L216.443 416.562Z" fill="#28A0A4"/>
<path d="M201.32 343.363L239.297 336.725L234.35 308.392L196.373 315.031L201.32 343.363Z" fill="white"/>
<path d="M201.3 344.116C201.12 344.116 200.946 344.054 200.807 343.94C200.668 343.825 200.572 343.667 200.537 343.49L195.596 315.156C195.564 314.959 195.608 314.758 195.718 314.591C195.838 314.423 196.018 314.308 196.221 314.271L234.194 307.634C234.293 307.616 234.395 307.618 234.493 307.641C234.591 307.663 234.684 307.704 234.766 307.762C234.849 307.82 234.919 307.894 234.972 307.979C235.026 308.065 235.062 308.16 235.078 308.259L240.019 336.594C240.041 336.691 240.042 336.792 240.021 336.889C239.999 336.987 239.957 337.079 239.897 337.158C239.842 337.241 239.77 337.311 239.686 337.363C239.602 337.416 239.508 337.45 239.409 337.463L201.422 344.101L201.3 344.116ZM197.228 315.644L201.91 342.468L238.388 336.105L233.752 309.343L197.228 315.644Z" fill="#18969A"/>
<path d="M217.983 298.982C217.983 298.982 218.243 303.56 219.508 304.597C220.774 305.635 225.242 308.412 224.922 309.312C224.602 310.212 221.46 310.838 221.46 310.838C221.46 310.838 224.236 316.331 221.994 317.979C219.752 319.626 213.774 321.305 212.631 319.642C211.487 317.979 208.925 300.645 208.925 300.645" fill="white"/>
<path d="M214.644 321.091C214.339 321.116 214.033 321.116 213.729 321.091C213.375 321.056 213.034 320.941 212.731 320.756C212.427 320.572 212.169 320.321 211.975 320.023C210.785 318.314 208.574 303.636 208.147 300.706C208.117 300.504 208.168 300.298 208.29 300.133C208.411 299.969 208.593 299.859 208.795 299.829C208.998 299.799 209.204 299.85 209.368 299.972C209.532 300.093 209.642 300.275 209.672 300.478C210.907 308.915 212.585 318.208 213.241 319.154C213.433 319.344 213.688 319.458 213.957 319.474C216.657 319.539 219.314 318.789 221.582 317.323C222.863 316.361 221.582 312.745 220.82 311.219C220.771 311.112 220.745 310.995 220.745 310.876C220.745 310.758 220.771 310.64 220.82 310.533C220.871 310.428 220.946 310.336 221.039 310.264C221.131 310.193 221.239 310.144 221.354 310.121C222.327 309.95 223.268 309.631 224.144 309.175C223.019 308.096 221.799 307.121 220.5 306.26C219.92 305.833 219.402 305.482 219.081 305.223C217.556 304.048 217.312 299.882 217.267 299.12C217.258 298.918 217.328 298.721 217.462 298.57C217.596 298.42 217.783 298.327 217.983 298.311C218.084 298.303 218.185 298.315 218.281 298.347C218.377 298.379 218.465 298.43 218.541 298.497C218.616 298.564 218.677 298.645 218.721 298.737C218.764 298.828 218.788 298.927 218.792 299.028C218.898 301.073 219.417 303.605 220.042 304.094C220.332 304.338 220.82 304.674 221.384 305.07C224.678 307.42 226.081 308.549 225.685 309.648C225.38 310.533 223.87 311.174 222.635 311.448C223.397 313.233 224.693 317.078 222.543 318.681C220.169 320.167 217.443 320.999 214.644 321.091Z" fill="#28A0A4"/>
<path d="M206.104 234.577L220.134 300.767L208.163 305.345C208.163 305.345 189.649 246.204 187.941 241.733" fill="#28A0A4"/>
<path d="M208.163 306.169C208.057 306.19 207.948 306.19 207.843 306.169C207.748 306.125 207.663 306.062 207.595 305.983C207.526 305.904 207.476 305.811 207.446 305.711C207.263 305.116 188.917 246.54 187.24 242.13C187.191 242.035 187.163 241.93 187.157 241.823C187.152 241.715 187.169 241.608 187.208 241.508C187.246 241.408 187.306 241.317 187.382 241.241C187.458 241.166 187.55 241.107 187.65 241.069C187.751 241.031 187.858 241.015 187.965 241.022C188.072 241.028 188.177 241.057 188.272 241.107C188.367 241.157 188.451 241.226 188.517 241.31C188.584 241.395 188.632 241.492 188.658 241.596C190.259 245.823 206.379 297.197 208.651 304.475L219.326 300.401L205.418 234.791C205.395 234.693 205.392 234.591 205.409 234.492C205.426 234.393 205.463 234.298 205.517 234.213C205.571 234.127 205.641 234.054 205.723 233.996C205.806 233.938 205.899 233.897 205.997 233.876C206.197 233.843 206.401 233.885 206.57 233.995C206.74 234.106 206.862 234.275 206.912 234.471L220.942 300.645C220.98 300.823 220.953 301.008 220.866 301.167C220.779 301.327 220.639 301.45 220.47 301.515L208.498 306.093C208.398 306.155 208.28 306.182 208.163 306.169Z" fill="#229B9F"/>
<path d="M216.946 235.234C216.946 235.234 224.648 259.647 225.929 277.087L216.946 235.234Z" fill="#229B9F"/>
<path d="M225.929 277.85C225.737 277.85 225.551 277.778 225.41 277.648C225.269 277.518 225.182 277.339 225.166 277.148C223.901 259.937 216.291 235.707 216.215 235.462C216.173 235.276 216.203 235.081 216.298 234.916C216.393 234.75 216.547 234.627 216.729 234.569C216.911 234.512 217.108 234.524 217.281 234.605C217.454 234.686 217.59 234.828 217.663 235.005C217.74 235.249 225.41 259.662 226.691 277.026C226.7 277.126 226.688 277.227 226.657 277.323C226.627 277.418 226.577 277.507 226.512 277.584C226.447 277.66 226.367 277.723 226.277 277.769C226.188 277.814 226.09 277.842 225.99 277.85H225.929Z" fill="#229B9F"/>
<path d="M487.634 376.478C487.634 376.478 493.094 349.471 479.354 330.856C479.354 330.856 471.912 333.71 473.925 350.616C475.301 361.196 478.714 371.409 483.974 380.69L487.634 376.478Z" fill="white"/>
<path d="M483.974 381.407C483.85 381.394 483.731 381.352 483.625 381.286C483.519 381.22 483.43 381.131 483.364 381.025C478.06 371.639 474.607 361.321 473.192 350.631C471.148 333.313 478.804 330.17 479.139 330.048C479.3 329.989 479.475 329.982 479.639 330.029C479.803 330.075 479.949 330.173 480.054 330.307C493.779 348.999 488.518 376.28 488.472 376.555C488.443 376.69 488.38 376.816 488.289 376.921L484.629 381.132C484.548 381.225 484.447 381.298 484.333 381.346C484.22 381.393 484.097 381.414 483.974 381.407ZM479.124 331.818C477.599 332.855 473.116 337.112 474.702 350.448C476.049 360.551 479.238 370.32 484.111 379.271L486.902 376.051C487.344 373.579 491.385 349.014 479.124 331.818Z" fill="#18969A"/>
<path d="M482.129 372.603C482.129 372.603 475.755 328.72 452.788 313.096C453.56 323.892 455.871 334.523 459.651 344.665C465.674 359.847 476.685 373.961 476.685 373.961L482.129 372.603Z" fill="white"/>
<path d="M476.684 374.693C476.564 374.694 476.444 374.667 476.336 374.614C476.227 374.561 476.132 374.484 476.059 374.388C475.952 374.251 464.911 360.015 458.918 344.894C455.131 334.667 452.801 323.957 451.995 313.081C451.99 312.933 452.025 312.786 452.098 312.657C452.171 312.528 452.277 312.421 452.406 312.348C452.529 312.269 452.672 312.228 452.818 312.228C452.964 312.228 453.107 312.269 453.23 312.348C465.277 320.572 472.704 336.502 476.806 348.419C479.506 356.25 481.546 364.294 482.906 372.465C482.931 372.658 482.884 372.853 482.774 373.013C482.664 373.174 482.5 373.288 482.311 373.335L476.867 374.647L476.684 374.693ZM453.703 314.652C454.584 324.795 456.83 334.773 460.382 344.314C464.736 354.522 470.318 364.16 477.005 373.015L481.229 372.008C480.375 366.423 473.482 329.575 453.703 314.652Z" fill="#18969A"/>
<path d="M492.072 376.478C492.072 376.478 508.176 334.381 501.741 304.765C501.741 304.765 493.292 312.501 487.634 329.682C481.977 346.862 484.584 376.509 484.584 376.509L492.072 376.478Z" fill="white"/>
<path d="M492.072 377.18H484.569C484.371 377.185 484.178 377.113 484.03 376.98C483.883 376.846 483.792 376.661 483.776 376.463C483.776 376.173 481.26 346.466 486.826 329.331C492.393 312.196 500.795 304.399 501.146 304.078C501.245 303.983 501.369 303.916 501.504 303.887C501.638 303.857 501.778 303.865 501.909 303.91C502.042 303.949 502.162 304.024 502.256 304.126C502.35 304.228 502.415 304.354 502.442 304.49C508.863 334.015 492.911 376.204 492.743 376.677C492.693 376.817 492.602 376.94 492.483 377.029C492.364 377.119 492.221 377.171 492.072 377.18ZM485.286 375.654H491.523C493.277 370.879 506.438 333.557 501.268 306.321C498.874 308.946 492.759 316.575 488.382 329.865C483.334 345.184 484.951 370.985 485.286 375.609V375.654Z" fill="#18969A"/>
<path d="M501.313 371.672C501.954 371.672 518.485 345.733 518.912 323.136C511.46 328.361 505.415 335.348 501.313 343.475C494.862 356.643 493.795 373.9 493.795 373.9L501.313 371.672Z" fill="white"/>
<path d="M493.795 374.693C493.687 374.693 493.58 374.671 493.481 374.629C493.382 374.586 493.292 374.523 493.218 374.445C493.143 374.366 493.086 374.273 493.049 374.172C493.012 374.07 492.996 373.962 493.002 373.854C493.002 373.686 494.161 356.276 500.627 343.124C504.778 334.859 510.92 327.759 518.5 322.464C518.622 322.39 518.762 322.351 518.904 322.351C519.047 322.351 519.187 322.39 519.309 322.464C519.434 322.533 519.539 322.635 519.611 322.758C519.684 322.882 519.721 323.023 519.72 323.166C519.309 344.207 504.287 370.879 501.542 372.404L494.024 374.632L493.795 374.693ZM518.073 324.692C511.335 329.758 505.843 336.297 502.015 343.811C496.647 354.781 495.031 368.788 494.665 372.801L500.932 370.94C502.396 369.215 516.975 345.764 518.073 324.692Z" fill="#18969A"/>
<path d="M498.599 398.938H476.685L468.19 367.446H507.078L498.599 398.938Z" fill="#28A0A4"/>
<path d="M498.675 399.701H476.684C476.517 399.703 476.353 399.648 476.221 399.546C476.088 399.443 475.993 399.299 475.952 399.137L467.458 367.644C467.427 367.531 467.423 367.413 467.447 367.299C467.471 367.185 467.522 367.078 467.595 366.988C467.665 366.895 467.754 366.819 467.857 366.767C467.96 366.714 468.074 366.685 468.19 366.683H507.077C507.194 366.684 507.31 366.712 507.414 366.764C507.519 366.816 507.611 366.891 507.683 366.983C507.755 367.075 507.805 367.183 507.829 367.297C507.854 367.412 507.852 367.53 507.825 367.644L499.33 399.137C499.291 399.286 499.207 399.42 499.09 399.521C498.973 399.622 498.828 399.685 498.675 399.701ZM477.325 398.175H498.08L506.162 368.208H469.181L477.325 398.175Z" fill="#18969A"/>
</svg>
