<svg width="12" height="10" viewBox="0 0 12 10" fill="none" xmlns="http://www.w3.org/2000/svg">
<path d="M10.0837 0.833762C10.2774 0.649359 10.5351 0.547414 10.8025 0.549438C11.07 0.551461 11.3261 0.657295 11.517 0.844608C11.7079 1.03192 11.8186 1.28606 11.8256 1.5534C11.8327 1.82074 11.7356 2.08038 11.5549 2.27751L6.06866 9.13877C5.97432 9.24038 5.86046 9.32192 5.73389 9.37852C5.60732 9.43512 5.47063 9.46562 5.33201 9.46818C5.19338 9.47075 5.05566 9.44534 4.92708 9.39346C4.7985 9.34158 4.6817 9.26431 4.58366 9.16626L0.945411 5.52801C0.844092 5.4336 0.762827 5.31975 0.706463 5.19325C0.650099 5.06675 0.619791 4.9302 0.617348 4.79173C0.614905 4.65327 0.640377 4.51573 0.692243 4.38732C0.744109 4.25891 0.821308 4.14226 0.919234 4.04434C1.01716 3.94641 1.13381 3.86921 1.26221 3.81734C1.39062 3.76548 1.52816 3.74001 1.66663 3.74245C1.8051 3.74489 1.94165 3.7752 2.06815 3.83156C2.19465 3.88793 2.3085 3.96919 2.40291 4.07051L5.28216 6.94839L10.0575 0.864012C10.0661 0.853426 10.0753 0.843327 10.085 0.833762H10.0837Z" fill="#C4C4C4"/>
</svg>
