<svg width="17" height="16" viewBox="0 0 17 16" fill="none" xmlns="http://www.w3.org/2000/svg">
<path fill-rule="evenodd" clip-rule="evenodd" d="M2.00325 0.499556C2.18915 0.32848 2.41239 0.195769 2.65815 0.110218C2.90392 0.0246679 3.1666 -0.0117689 3.4288 0.00332262C3.691 0.0184142 3.94673 0.0846895 4.17904 0.197757C4.41134 0.310824 4.61492 0.468101 4.77629 0.659165L6.68342 2.91719C7.03297 3.33139 7.15621 3.87092 7.01809 4.38011L6.43692 6.52454C6.40688 6.63561 6.4085 6.75196 6.44164 6.86228C6.47477 6.9726 6.5383 7.07315 6.62604 7.15417L9.23652 9.56005C9.32454 9.64108 9.43382 9.69972 9.55373 9.73027C9.67363 9.76081 9.80008 9.76222 9.92075 9.73435L12.2465 9.19873C12.5191 9.1359 12.8037 9.13102 13.0787 9.18445C13.3537 9.23789 13.6119 9.34824 13.8338 9.50717L16.2839 11.2638C17.1647 11.8954 17.2454 13.0949 16.457 13.8205L15.3585 14.833C14.5722 15.5576 13.3971 15.8759 12.3017 15.5204C9.49809 14.6113 6.95251 13.132 4.85385 11.1924C2.74941 9.25847 1.14436 6.91275 0.157745 4.32919C-0.226868 3.32062 0.118434 2.23665 0.90466 1.51204L2.00325 0.499556Z" fill="#18969A"/>
</svg>
