<svg width="17" height="21" viewBox="0 0 17 21" fill="none" xmlns="http://www.w3.org/2000/svg">
<path d="M13.75 0H3.25C2.55381 0 1.88613 0.276562 1.39384 0.768845C0.901562 1.26113 0.625 1.92881 0.625 2.625V18.375C0.625 19.0712 0.901562 19.7389 1.39384 20.2312C1.88613 20.7234 2.55381 21 3.25 21H13.75C14.4462 21 15.1139 20.7234 15.6062 20.2312C16.0984 19.7389 16.375 19.0712 16.375 18.375V2.625C16.375 1.92881 16.0984 1.26113 15.6062 0.768845C15.1139 0.276562 14.4462 0 13.75 0V0ZM7.1875 5.57812C7.1875 5.7074 7.16204 5.8354 7.11257 5.95483C7.0631 6.07426 6.99059 6.18278 6.89918 6.27418C6.80778 6.36559 6.69926 6.4381 6.57983 6.48757C6.4604 6.53704 6.3324 6.5625 6.20312 6.5625C6.07385 6.5625 5.94585 6.53704 5.82642 6.48757C5.70699 6.4381 5.59847 6.36559 5.50707 6.27418C5.41566 6.18278 5.34315 6.07426 5.29368 5.95483C5.24421 5.8354 5.21875 5.7074 5.21875 5.57812C5.21875 5.31705 5.32246 5.06667 5.50707 4.88207C5.69167 4.69746 5.94205 4.59375 6.20312 4.59375C6.4642 4.59375 6.71458 4.69746 6.89918 4.88207C7.08379 5.06667 7.1875 5.31705 7.1875 5.57812ZM6.05744 7.602L7.80306 8.76488L10.2364 6.33019C10.2852 6.28133 10.348 6.24908 10.4161 6.238C10.4842 6.22693 10.5541 6.2376 10.6158 6.2685L13.0938 7.54688V9.84375C13.0938 10.0178 13.0246 10.1847 12.9015 10.3078C12.7785 10.4309 12.6115 10.5 12.4375 10.5H4.5625C4.38845 10.5 4.22153 10.4309 4.09846 10.3078C3.97539 10.1847 3.90625 10.0178 3.90625 9.84375V9.1875C3.90625 9.1875 5.9275 7.51537 6.05744 7.602ZM4.5625 11.8125H12.4375C12.6115 11.8125 12.7785 11.8816 12.9015 12.0047C13.0246 12.1278 13.0938 12.2947 13.0938 12.4688C13.0938 12.6428 13.0246 12.8097 12.9015 12.9328C12.7785 13.0559 12.6115 13.125 12.4375 13.125H4.5625C4.38845 13.125 4.22153 13.0559 4.09846 12.9328C3.97539 12.8097 3.90625 12.6428 3.90625 12.4688C3.90625 12.2947 3.97539 12.1278 4.09846 12.0047C4.22153 11.8816 4.38845 11.8125 4.5625 11.8125ZM4.5625 14.4375H8.5C8.67405 14.4375 8.84097 14.5066 8.96404 14.6297C9.08711 14.7528 9.15625 14.9197 9.15625 15.0938C9.15625 15.2678 9.08711 15.4347 8.96404 15.5578C8.84097 15.6809 8.67405 15.75 8.5 15.75H4.5625C4.38845 15.75 4.22153 15.6809 4.09846 15.5578C3.97539 15.4347 3.90625 15.2678 3.90625 15.0938C3.90625 14.9197 3.97539 14.7528 4.09846 14.6297C4.22153 14.5066 4.38845 14.4375 4.5625 14.4375Z" fill="#28A0A4"/>
</svg>
