<svg width="21" height="21" viewBox="0 0 21 21" fill="none" xmlns="http://www.w3.org/2000/svg">
<path d="M12.3441 1.37812C11.802 -0.459375 9.198 -0.459375 8.65594 1.37812L8.52469 1.82438C8.4437 2.09947 8.30216 2.35294 8.11045 2.56622C7.91875 2.77949 7.68174 2.94715 7.4168 3.0569C7.15186 3.16665 6.86572 3.2157 6.57936 3.20047C6.293 3.18524 6.01367 3.10611 5.76187 2.96888L5.355 2.74575C3.67106 1.82963 1.82962 3.67106 2.74706 5.35369L2.96888 5.76187C3.55425 6.83812 2.99906 8.17819 1.82438 8.52469L1.37812 8.65594C-0.459375 9.198 -0.459375 11.802 1.37812 12.3441L1.82438 12.4753C2.09947 12.5563 2.35294 12.6978 2.56622 12.8895C2.77949 13.0813 2.94715 13.3183 3.0569 13.5832C3.16665 13.8481 3.2157 14.1343 3.20047 14.4206C3.18524 14.707 3.10611 14.9863 2.96888 15.2381L2.74575 15.645C1.82963 17.3289 3.67106 19.1704 5.35369 18.2529L5.76187 18.0311C6.01367 17.8939 6.293 17.8148 6.57936 17.7995C6.86572 17.7843 7.15186 17.8334 7.4168 17.9431C7.68174 18.0529 7.91875 18.2205 8.11045 18.4338C8.30216 18.6471 8.4437 18.9005 8.52469 19.1756L8.65594 19.6219C9.198 21.4594 11.802 21.4594 12.3441 19.6219L12.4753 19.1756C12.5563 18.9005 12.6978 18.6471 12.8895 18.4338C13.0813 18.2205 13.3183 18.0529 13.5832 17.9431C13.8481 17.8334 14.1343 17.7843 14.4206 17.7995C14.707 17.8148 14.9863 17.8939 15.2381 18.0311L15.645 18.2542C17.3289 19.1704 19.1704 17.3289 18.2529 15.6463L18.0311 15.2381C17.8939 14.9863 17.8148 14.707 17.7995 14.4206C17.7843 14.1343 17.8334 13.8481 17.9431 13.5832C18.0529 13.3183 18.2205 13.0813 18.4338 12.8895C18.6471 12.6978 18.9005 12.5563 19.1756 12.4753L19.6219 12.3441C21.4594 11.802 21.4594 9.198 19.6219 8.65594L19.1756 8.52469C18.9005 8.4437 18.6471 8.30216 18.4338 8.11045C18.2205 7.91875 18.0529 7.68174 17.9431 7.4168C17.8334 7.15186 17.7843 6.86572 17.7995 6.57936C17.8148 6.293 17.8939 6.01367 18.0311 5.76187L18.2542 5.355C19.1704 3.67106 17.3289 1.82962 15.6463 2.74706L15.2381 2.96888C14.9863 3.10611 14.707 3.18524 14.4206 3.20047C14.1343 3.2157 13.8481 3.16665 13.5832 3.0569C13.3183 2.94715 13.0813 2.77949 12.8895 2.56622C12.6978 2.35294 12.5563 2.09947 12.4753 1.82438L12.3441 1.37812ZM10.5 14.3456C9.48008 14.3456 8.50193 13.9405 7.78073 13.2193C7.05954 12.4981 6.65438 11.5199 6.65438 10.5C6.65438 9.48008 7.05954 8.50193 7.78073 7.78073C8.50193 7.05954 9.48008 6.65438 10.5 6.65438C11.5196 6.65438 12.4974 7.0594 13.2183 7.78035C13.9393 8.5013 14.3443 9.47911 14.3443 10.4987C14.3443 11.5183 13.9393 12.4961 13.2183 13.217C12.4974 13.938 11.5196 14.343 10.5 14.343V14.3456Z" fill="#18969A"/>
</svg>
