<svg width="13" height="16" viewBox="0 0 13 16" fill="none" xmlns="http://www.w3.org/2000/svg">
<path d="M6.5 15.6664C6.5 15.6664 12.875 10.099 12.875 5.8749C12.875 4.31678 12.2034 2.82248 11.0078 1.72072C9.81226 0.618961 8.19075 0 6.5 0C4.80925 0 3.18774 0.618961 1.99219 1.72072C0.79665 2.82248 0.125 4.31678 0.125 5.8749C0.125 10.099 6.5 15.6664 6.5 15.6664ZM6.5 8.81235C5.65462 8.81235 4.84387 8.50287 4.2461 7.95199C3.64832 7.40111 3.3125 6.65396 3.3125 5.8749C3.3125 5.09584 3.64832 4.34869 4.2461 3.79781C4.84387 3.24693 5.65462 2.93745 6.5 2.93745C7.34538 2.93745 8.15613 3.24693 8.7539 3.79781C9.35168 4.34869 9.6875 5.09584 9.6875 5.8749C9.6875 6.65396 9.35168 7.40111 8.7539 7.95199C8.15613 8.50287 7.34538 8.81235 6.5 8.81235Z" fill="#18969A"/>
</svg>
